<?xml version="1.0" encoding="UTF-8"?>
<svg version="1.1" xmlns="http://www.w3.org/2000/svg" width="500" height="500">
<path d="M0 0 C1.18480453 -0.01591187 2.36960907 -0.03182373 3.59031677 -0.04821777 C4.86641312 -0.04841919 6.14250946 -0.04862061 7.45727539 -0.04882812 C9.4286422 -0.06024841 9.4286422 -0.06024841 11.43983459 -0.07189941 C14.21974222 -0.08533338 16.99936591 -0.08691806 19.77929688 -0.08105469 C23.33505376 -0.07515909 26.88944494 -0.10574598 30.44493771 -0.14617157 C33.84492684 -0.17829644 37.24463497 -0.17393227 40.64477539 -0.17382812 C41.9188475 -0.19022339 43.19291962 -0.20661865 44.50559998 -0.22351074 C45.69355667 -0.21420532 46.88151337 -0.2048999 48.10546875 -0.1953125 C49.66955727 -0.19839417 49.66955727 -0.19839417 51.26524353 -0.20153809 C55.25993633 0.6688609 56.59147609 2.22902684 59.11743164 5.41992188 C59.6098859 8.39624831 59.79485897 10.79863082 59.75234985 13.7701416 C59.76014981 14.60801413 59.76794976 15.44588666 59.77598608 16.30914927 C59.79592238 19.11540159 59.78013542 21.92030023 59.7644043 24.7265625 C59.77117969 26.73887423 59.78008238 28.75117975 59.79095459 30.76347351 C59.81376362 36.22836931 59.80490479 41.69279355 59.78905916 47.15769768 C59.77640858 52.87422846 59.78813794 58.59071862 59.79598999 64.30725098 C59.80508898 73.90754452 59.79309198 83.5076458 59.76928711 93.10791016 C59.74207549 104.21035943 59.75088946 115.31234962 59.77841914 126.41478777 C59.80110198 135.94359027 59.80431428 145.47225449 59.79122579 155.00107527 C59.7834268 160.69377131 59.78240216 166.3862515 59.79890823 172.07893372 C59.8133416 177.43069279 59.80335159 182.78185945 59.77443695 188.13355446 C59.76782013 190.09876839 59.76973394 192.06403211 59.78075027 194.0292263 C59.79439384 196.7100601 59.77730524 199.38899004 59.75234985 202.06970215 C59.76350346 202.84937174 59.77465707 203.62904134 59.78614867 204.43233728 C59.71657406 208.27941637 59.23750518 210.25321542 56.96913719 213.40254879 C53.60815542 215.78019755 51.93881567 216.04592453 47.85522461 216.04811096 C45.96256866 216.0670919 45.96256866 216.0670919 44.03167725 216.0864563 C42.6409871 216.07514097 41.25030104 216.06331353 39.85961914 216.05102539 C38.38917172 216.05616571 36.91873047 216.06344784 35.44830322 216.07270813 C31.46055519 216.09121654 27.47347608 216.07828762 23.48575592 216.05861783 C19.31072723 216.04222514 15.13574069 216.05104508 10.96069336 216.05613708 C3.94967979 216.06065736 -3.06106693 216.04479242 -10.07202148 216.0168457 C-18.17522647 215.98479396 -26.27795019 215.98480966 -34.38118935 216.00206047 C-42.1793788 216.0179297 -49.97739198 216.01118949 -57.77557373 215.99412346 C-61.09288226 215.98725465 -64.41004942 215.98828362 -67.72735596 215.99566841 C-71.63454418 216.00333523 -75.54118537 215.99119284 -79.44828033 215.9638195 C-80.88134385 215.95693864 -82.3144585 215.95683457 -83.74752045 215.96403503 C-85.70513935 215.97273702 -87.66282263 215.95432657 -89.62036133 215.93458557 C-90.71540985 215.93177865 -91.81045837 215.92897173 -92.93869019 215.92607975 C-96.59886941 215.29676412 -98.2681063 214.01538335 -100.88256836 211.41992188 C-102.2121926 207.43104914 -102.03835471 203.5974626 -102.04370117 199.43798828 C-102.04866608 198.51899246 -102.05363098 197.59999664 -102.05874634 196.65315247 C-102.0733662 193.60925552 -102.08016939 190.56541068 -102.08569336 187.52148438 C-102.09144459 185.40782672 -102.09720232 183.29416909 -102.10296631 181.18051147 C-102.11347554 176.74696611 -102.11931884 172.31343888 -102.12280273 167.87988281 C-102.12828983 162.19799304 -102.15232291 156.51634263 -102.18077469 150.83452797 C-102.1993942 146.46793923 -102.20460629 142.10140826 -102.20613861 137.73478317 C-102.20916679 135.64000514 -102.21720086 133.54522816 -102.23032379 131.45048904 C-102.24737108 128.52035526 -102.24550727 125.59080773 -102.23901367 122.66064453 C-102.24822845 121.79501389 -102.25744324 120.92938324 -102.26693726 120.03752136 C-102.23434177 115.34421398 -101.94547035 112.22471076 -98.88256836 108.41992188 C-94.6929246 105.90339513 -90.26638115 106.16027242 -85.51928711 106.22460938 C-84.72730423 106.22743927 -83.93532135 106.23026917 -83.11933899 106.23318481 C-80.60275837 106.24433325 -78.08654047 106.26942765 -75.57006836 106.29492188 C-73.85848498 106.30495859 -72.14689599 106.31408323 -70.43530273 106.32226562 C-66.2509193 106.34425506 -62.06680522 106.37874779 -57.88256836 106.41992188 C-57.88923019 105.86948212 -57.89589203 105.31904236 -57.90275574 104.75192261 C-57.96926358 99.00915381 -58.01443291 93.26649492 -58.04736328 87.5234375 C-58.06242477 85.38179071 -58.08287808 83.24017463 -58.10888672 81.09863281 C-58.14538564 78.01554776 -58.16232138 74.9328715 -58.17553711 71.84960938 C-58.19102097 70.89625702 -58.20650482 69.94290466 -58.22245789 68.96066284 C-58.22378081 63.70335681 -57.92155288 59.92261505 -54.88256836 55.41992188 C-50.94952364 52.79789206 -47.61631767 53.16843661 -43.05834961 53.22460938 C-42.1969487 53.22743927 -41.33554779 53.23026917 -40.44804382 53.23318481 C-37.69691067 53.2443795 -34.94610311 53.26948266 -32.19506836 53.29492188 C-30.32983869 53.3049526 -28.46460391 53.31407829 -26.59936523 53.32226562 C-22.02697416 53.3443165 -17.45482647 53.37884139 -12.88256836 53.41992188 C-12.89827881 52.11845215 -12.91398926 50.81698242 -12.93017578 49.47607422 C-12.98459286 44.63434062 -13.01896141 39.79263393 -13.04736328 34.95068359 C-13.06242305 32.85753835 -13.08287507 30.76442451 -13.10888672 28.67138672 C-13.14539337 25.6577986 -13.16232309 22.64462876 -13.17553711 19.63085938 C-13.19102097 18.6993808 -13.20650482 17.76790222 -13.22245789 16.80819702 C-13.22379796 11.60113163 -12.90366545 7.86744701 -9.88256836 3.41992188 C-6.65124113 0.38813413 -4.37553529 0.03535598 0 0 Z " fill="#ECBF2D" transform="translate(415.882568359375,141.580078125)"/>
<path d="M0 0 C1.7774334 -0.02409439 1.7774334 -0.02409439 3.59077454 -0.04867554 C9.01234474 -0.09302853 14.43376918 -0.13462981 19.85546875 -0.15722656 C22.71809875 -0.17056268 25.58001533 -0.1984077 28.44238281 -0.23925781 C32.56221565 -0.29805256 36.6812832 -0.31588571 40.80151367 -0.33056641 C42.08185989 -0.35323578 43.36220612 -0.37590515 44.68135071 -0.39926147 C46.47296883 -0.39498642 46.47296883 -0.39498642 48.30078125 -0.390625 C49.34953934 -0.39871185 50.39829742 -0.40679871 51.47883606 -0.41513062 C55.49088493 0.43610232 56.81211973 1.99184005 59.34448242 5.19287109 C59.83693668 8.16919753 60.02190975 10.57158004 59.97940063 13.54309082 C59.98720059 14.38096335 59.99500054 15.21883588 60.00303686 16.08209848 C60.02297316 18.8883508 60.0071862 21.69324945 59.99145508 24.49951172 C59.99823047 26.51182344 60.00713316 28.52412897 60.01800537 30.53642273 C60.0408144 36.00131853 60.03195557 41.46574277 60.01610994 46.9306469 C60.00345936 52.64717768 60.01518872 58.36366784 60.02304077 64.0802002 C60.03213976 73.68049374 60.02014276 83.28059502 59.99633789 92.88085938 C59.96912627 103.98330865 59.97794025 115.08529884 60.00546992 126.18773699 C60.02815276 135.71653949 60.03136506 145.24520371 60.01827657 154.77402449 C60.01047758 160.46672053 60.00945294 166.15920072 60.02595901 171.85188293 C60.04039238 177.20364201 60.03040237 182.55480867 60.00148773 187.90650368 C59.99487091 189.87171761 59.99678472 191.83698132 60.00780106 193.80217552 C60.02144462 196.48300932 60.00435602 199.16193926 59.97940063 201.84265137 C59.99055424 202.62232096 60.00170785 203.40199056 60.01319945 204.2052865 C59.94202317 208.14092916 59.48080062 210.01390249 57.06976891 213.17928314 C54.36356461 215.17877215 53.3757024 215.81241427 50.10498047 215.76049805 C49.30452805 215.76012039 48.50407562 215.75974274 47.67936707 215.75935364 C46.83022232 215.73354721 45.98107758 215.70774078 45.10620117 215.68115234 C44.22543411 215.67407761 43.34466705 215.66700287 42.43721008 215.65971375 C39.63458958 215.63180957 36.83399507 215.56908052 34.03198242 215.50537109 C32.12771448 215.48028299 30.2234151 215.45747071 28.3190918 215.43701172 C23.66011258 215.38199613 19.00264053 215.2957526 14.34448242 215.19287109 C14.34816959 214.39865155 14.35185677 213.60443201 14.35565567 212.78614521 C14.44397469 193.46528983 14.51017644 174.14447471 14.55173111 154.82346058 C14.57236054 145.47997096 14.6004884 136.13661605 14.64624023 126.79321289 C14.68609636 118.64994822 14.71191247 110.50678111 14.7208364 102.36342162 C14.72605324 98.05112139 14.73832249 93.73910024 14.76740265 89.42688942 C14.79455251 85.3680334 14.80292836 81.30957144 14.79691315 77.25063324 C14.79801359 75.76109615 14.80597032 74.27154589 14.82130432 72.78208733 C14.84122133 70.74766959 14.83403323 68.71304042 14.82550049 66.67854309 C14.82918766 65.54012876 14.83287483 64.40171442 14.83667374 63.22880268 C14.23532947 59.51959452 12.94482571 57.85489441 10.34448242 55.19287109 C7.69368193 54.1385902 5.07242011 54.0269284 2.23510742 53.87646484 C1.10395508 53.81362305 1.10395508 53.81362305 -0.05004883 53.74951172 C-0.82735352 53.71019531 -1.6046582 53.67087891 -2.40551758 53.63037109 C-3.59467773 53.5655957 -3.59467773 53.5655957 -4.80786133 53.49951172 C-6.75689573 53.39384118 -8.70618506 53.29289143 -10.65551758 53.19287109 C-10.70490734 46.98153854 -10.74123234 40.77031997 -10.76538086 34.55883789 C-10.77544652 32.44521087 -10.78910014 30.3315978 -10.80639648 28.21801758 C-10.83061988 25.18225667 -10.84199495 22.14667966 -10.85083008 19.11083984 C-10.86115265 18.16387741 -10.87147522 17.21691498 -10.8821106 16.24125671 C-10.88226166 15.36057022 -10.88241272 14.47988373 -10.88256836 13.57250977 C-10.88700958 12.79751633 -10.89145081 12.02252289 -10.89602661 11.2240448 C-10.65551758 9.19287109 -10.65551758 9.19287109 -8.65551758 6.19287109 C-8.49051758 5.32662109 -8.32551758 4.46037109 -8.15551758 3.56787109 C-7.99051758 2.78412109 -7.82551758 2.00037109 -7.65551758 1.19287109 C-5.00579547 -0.13198996 -2.96734927 0.03647017 0 0 Z " fill="#D4950D" transform="translate(415.655517578125,141.80712890625)"/>
<path d="M0 0 C0.86140091 0.0028299 1.72280182 0.00565979 2.61030579 0.00857544 C5.36143894 0.01977013 8.1122465 0.04487329 10.86328125 0.0703125 C12.72851092 0.08034323 14.5937457 0.08946891 16.45898438 0.09765625 C21.03137545 0.11970712 25.60352314 0.15423201 30.17578125 0.1953125 C29.84578125 1.5153125 29.51578125 2.8353125 29.17578125 4.1953125 C28.58442383 4.12602539 27.99306641 4.05673828 27.38378906 3.98535156 C20.88659677 3.27357338 14.45978307 2.98121361 7.92578125 2.9453125 C6.971875 2.9246875 6.01796875 2.9040625 5.03515625 2.8828125 C-0.35890339 2.8528455 -4.17180183 3.14308994 -8.82421875 6.1953125 C-11.18374969 8.55484344 -11.31563288 9.97426867 -11.82421875 13.1953125 C-12.48421875 13.1953125 -13.14421875 13.1953125 -13.82421875 13.1953125 C-13.82421875 26.7253125 -13.82421875 40.2553125 -13.82421875 54.1953125 C-7.22421875 54.1953125 -0.62421875 54.1953125 6.17578125 54.1953125 C13.17578125 59.1953125 13.17578125 59.1953125 14.03711605 61.41914082 C14.0306635 62.17408927 14.02421095 62.92903772 14.01756287 63.7068634 C14.03199684 65.01716019 14.03199684 65.01716019 14.04672241 66.35392761 C14.02155548 67.2990773 13.99638855 68.24422699 13.97045898 69.21801758 C13.97148117 70.22336548 13.97250336 71.22871338 13.97355652 72.26452637 C13.96868562 75.58238061 13.91426469 78.8974713 13.859375 82.21484375 C13.84631712 84.51696774 13.83635385 86.8191112 13.82936096 89.1212616 C13.80265097 95.17656284 13.73390071 101.23068619 13.65643311 107.28552246 C13.58478882 113.46557683 13.55284677 119.6458218 13.51757812 125.82617188 C13.44253467 137.9497359 13.32308306 150.0724262 13.17578125 162.1953125 C4.65685972 162.28807237 -3.86185013 162.35910732 -12.38115215 162.40256119 C-16.33720958 162.42341902 -20.292921 162.45170286 -24.2487793 162.49707031 C-28.06782739 162.54059371 -31.88654308 162.56446319 -35.70582008 162.57482147 C-37.16147913 162.5822013 -38.61712037 162.5966127 -40.07263756 162.61823273 C-42.11482142 162.64735526 -44.15563929 162.65126514 -46.19799805 162.64941406 C-47.3593779 162.65829651 -48.52075775 162.66717896 -49.71733093 162.67633057 C-53.50314521 162.09019899 -55.14440391 160.88854592 -57.82421875 158.1953125 C-59.15384299 154.20643977 -58.9800051 150.37285322 -58.98535156 146.21337891 C-58.99031647 145.29438309 -58.99528137 144.37538727 -59.00039673 143.42854309 C-59.01501659 140.38464615 -59.02181978 137.3408013 -59.02734375 134.296875 C-59.03309498 132.18321735 -59.03885271 130.06955972 -59.0446167 127.9559021 C-59.05512593 123.52235674 -59.06096923 119.08882951 -59.06445312 114.65527344 C-59.06994022 108.97338367 -59.0939733 103.29173325 -59.12242508 97.60991859 C-59.14104459 93.24332986 -59.14625668 88.87679888 -59.147789 84.5101738 C-59.15081718 82.41539576 -59.15885125 80.32061879 -59.17197418 78.22587967 C-59.18902147 75.29574589 -59.18715766 72.36619836 -59.18066406 69.43603516 C-59.18987885 68.57040451 -59.19909363 67.70477386 -59.20858765 66.81291199 C-59.17599216 62.11960461 -58.88712074 59.00010139 -55.82421875 55.1953125 C-51.63457499 52.67878575 -47.20803154 52.93566305 -42.4609375 53 C-41.66895462 53.0028299 -40.87697174 53.00565979 -40.06098938 53.00857544 C-37.54440876 53.01972387 -35.02819086 53.04481828 -32.51171875 53.0703125 C-30.80013537 53.08034921 -29.08854638 53.08947386 -27.37695312 53.09765625 C-23.19256969 53.11964569 -19.00845561 53.15413842 -14.82421875 53.1953125 C-14.83088058 52.64487274 -14.83754242 52.09443298 -14.84440613 51.52731323 C-14.91091397 45.78454444 -14.9560833 40.04188555 -14.98901367 34.29882812 C-15.00407516 32.15718133 -15.02452847 30.01556526 -15.05053711 27.87402344 C-15.08703603 24.79093839 -15.10397177 21.70826212 -15.1171875 18.625 C-15.13267136 17.67164764 -15.14815521 16.71829529 -15.16410828 15.73605347 C-15.1654312 10.47874744 -14.86320327 6.69800567 -11.82421875 2.1953125 C-7.89117403 -0.42671731 -4.55796806 -0.05617277 0 0 Z " fill="#F7DB63" transform="translate(372.82421875,194.8046875)"/>
<path d="M0 0 C7.20449399 0.05223751 12.63514308 0.5710826 18.3125 5.375 C20.97658497 10.38347975 21.52859461 15.75258777 20.125 21.25 C18.89692753 23.27631958 17.66487231 24.76670119 15.875 26.3125 C16.65875 27.075625 17.4425 27.83875 18.25 28.625 C21.68832382 32.14518868 23.17430502 34.18774306 23.25 39.0625 C23.12694336 44.33855335 22.06871894 47.11023823 18.875 51.3125 C14.13397927 55.50223925 9.95437972 56.0953793 3.875 56.3125 C2.41320312 56.37244141 2.41320312 56.37244141 0.921875 56.43359375 C-4.68687978 56.55839589 -4.68687978 56.55839589 -7.125 56.3125 C-9.66773722 53.76976278 -9.3776488 52.86810561 -9.38378906 49.34375 C-9.39009338 48.30927734 -9.39639771 47.27480469 -9.40289307 46.20898438 C-9.3988446 45.08814453 -9.39479614 43.96730469 -9.390625 42.8125 C-9.39253845 41.66587891 -9.3944519 40.51925781 -9.39642334 39.33789062 C-9.39778622 36.91015402 -9.39408267 34.48241016 -9.38574219 32.0546875 C-9.37504438 28.32795927 -9.38563431 24.60171314 -9.3984375 20.875 C-9.39711592 18.52083226 -9.39455357 16.16666483 -9.390625 13.8125 C-9.39467346 12.69166016 -9.39872192 11.57082031 -9.40289307 10.41601562 C-9.39658875 9.38154297 -9.39028442 8.34707031 -9.38378906 7.28125 C-9.38219788 6.36794922 -9.38060669 5.45464844 -9.37896729 4.51367188 C-8.75464186 -0.89744858 -4.41520446 0.01316661 0 0 Z M-3.125 6.3125 C-3.125 12.2525 -3.125 18.1925 -3.125 24.3125 C5.46434155 24.97108064 5.46434155 24.97108064 12.875 21.3125 C15.24468107 18.94281893 15.24523806 18.19236199 15.375 14.9375 C15.25862902 11.32418112 15.1101728 10.58033569 12.625 7.75 C7.84097954 5.1962113 2.09426528 6.08053265 -3.125 6.3125 Z M-3.125 30.3125 C-3.125 36.9125 -3.125 43.5125 -3.125 50.3125 C-0.0621875 50.4053125 -0.0621875 50.4053125 3.0625 50.5 C4.78533203 50.55220703 4.78533203 50.55220703 6.54296875 50.60546875 C10.20307021 50.28365444 11.97232274 49.51667204 14.875 47.3125 C17.00561342 44.11657986 17.8589902 42.09698019 17.9375 38.25 C16.8396014 35.21463329 15.68619268 33.20932916 13.10546875 31.21484375 C8.03118947 29.16202674 2.21370097 30.06067448 -3.125 30.3125 Z " fill="#C4821E" transform="translate(245.125,221.6875)"/>
<path d="M0 0 C1.97412109 0.21875 1.97412109 0.21875 4 1 C5.09647798 3.71393445 5.90201041 6.1861387 6.625 9 C6.83737305 9.77150391 7.04974609 10.54300781 7.26855469 11.33789062 C8.67771618 16.52447883 9.87398127 21.74524592 11 27 C11.33 27.33 11.66 27.66 12 28 C12.17128418 27.45585449 12.34256836 26.91170898 12.51904297 26.35107422 C13.30384622 23.85888673 14.08941716 21.36694185 14.875 18.875 C15.14441406 18.0190625 15.41382812 17.163125 15.69140625 16.28125 C16.21821672 14.61087532 16.74792302 12.94141071 17.28076172 11.27294922 C17.89433873 9.33391257 18.48122972 7.38646504 19.0625 5.4375 C19.371875 4.633125 19.68125 3.82875 20 3 C22.125 2.125 22.125 2.125 24 2 C26.90974171 5.33958992 27.88517229 8.49507422 29 12.75 C30.41775806 17.97389315 31.9908544 22.977136 34 28 C36.6424868 20.98616536 39.00316685 13.92575769 41.16796875 6.75 C41.75051282 4.82459614 42.36387599 2.90837204 43 1 C45.0625 0.3125 45.0625 0.3125 47 0 C48.10424805 1.64208984 48.10424805 1.64208984 49 4 C48.44848633 6.68212891 48.44848633 6.68212891 47.33203125 9.7265625 C46.93306641 10.84160156 46.53410156 11.95664063 46.12304688 13.10546875 C45.47432617 14.84763672 45.47432617 14.84763672 44.8125 16.625 C43.98378491 18.90816826 43.15693418 21.19201415 42.33203125 23.4765625 C41.92807129 24.57645508 41.52411133 25.67634766 41.10791016 26.80957031 C39.81882861 30.52171612 38.79624952 34.26796547 37.87768555 38.08740234 C37 40 37 40 35.03442383 41.33056641 C33 42 33 42 31 41 C30.07911151 38.44099255 29.26176573 35.91866216 28.5 33.3125 C28.07339701 31.89178276 27.64632062 30.47120758 27.21875 29.05078125 C27.01491699 28.36338867 26.81108398 27.67599609 26.60107422 26.96777344 C26.05687477 25.18619442 25.45730718 23.42176069 24.8515625 21.66015625 C23.98270804 18.94598246 23.83356266 16.82943481 24 14 C23.34 14 22.68 14 22 14 C21.88398437 14.65097656 21.76796875 15.30195313 21.6484375 15.97265625 C20.81769103 19.85114127 19.73610577 23.63130137 18.625 27.4375 C18.41617188 28.17548828 18.20734375 28.91347656 17.9921875 29.67382812 C16.71779013 34.04485568 15.18110931 37.97578955 13 42 C11.1640625 41.97265625 11.1640625 41.97265625 9 41 C7.90553543 38.43314802 7.10307207 36.10789593 6.375 33.4375 C6.17132813 32.74591797 5.96765625 32.05433594 5.7578125 31.34179688 C4.73769918 27.83352254 3.82093278 24.30654125 2.953125 20.7578125 C2.22385215 17.88256464 1.41468401 15.20473977 0.375 12.4375 C-1.00420179 8.41831094 -1.35260882 5.23130579 -1 1 C-0.67 0.67 -0.34 0.34 0 0 Z " fill="#CE9745" transform="translate(101,237)"/>
<path d="M0 0 C3.51520834 2.3707219 5.79390381 5.02530762 7.6875 8.8125 C7.7837762 10.83146864 7.81731825 12.8537429 7.8125 14.875 C7.81636719 16.50115234 7.81636719 16.50115234 7.8203125 18.16015625 C7.6875 20.8125 7.6875 20.8125 6.6875 21.8125 C4.68785018 21.90008003 2.6851389 21.91946576 0.68359375 21.91015625 C-0.53134766 21.90693359 -1.74628906 21.90371094 -2.99804688 21.90039062 C-4.27744141 21.89201172 -5.55683594 21.88363281 -6.875 21.875 C-8.15826172 21.87048828 -9.44152344 21.86597656 -10.76367188 21.86132812 C-13.94666022 21.84949545 -17.12955762 21.83301068 -20.3125 21.8125 C-19.7144481 23.27367304 -19.10397443 24.72976617 -18.48828125 26.18359375 C-18.14966064 26.99497803 -17.81104004 27.8063623 -17.4621582 28.64233398 C-16.37045848 31.08410552 -16.37045848 31.08410552 -13.5 32.875 C-8.43094775 34.36589772 -4.89684061 34.62020305 -0.125 32.1875 C2.6875 30.8125 2.6875 30.8125 5.0625 31.625 C5.59875 32.016875 6.135 32.40875 6.6875 32.8125 C6.5625 34.625 6.5625 34.625 5.6875 36.8125 C0.0291151 40.20753094 -4.73514769 41.36061269 -11.3125 40.8125 C-17.33640531 38.74072696 -21.29160651 35.80179625 -24.21484375 30.03125 C-27.25916109 22.96057747 -27.23079113 16.71359253 -24.625 9.5 C-22.41106405 4.47187081 -19.8273131 2.20961839 -15.0625 -0.4375 C-9.8318318 -1.86404587 -5.10912031 -1.83157143 0 0 Z M-17.3125 7.8125 C-18.3025 10.4525 -19.2925 13.0925 -20.3125 15.8125 C-12.7225 15.8125 -5.1325 15.8125 2.6875 15.8125 C2.36073238 9.20335732 2.36073238 9.20335732 -0.3125 6.375 C-5.82917373 3.50173243 -12.59648219 3.373895 -17.3125 7.8125 Z " fill="#C7903D" transform="translate(177.3125,238.1875)"/>
<path d="M0 0 C3.76964651 2.50579215 6.20740003 5.90487297 7.62890625 10.1875 C8.11779726 12.90849946 8.18569521 15.51297942 8.203125 18.27734375 C8.21730469 19.29699219 8.23148438 20.31664062 8.24609375 21.3671875 C7.77937407 27.38708033 5.08187033 30.98990689 1.015625 35.33984375 C-3.37272056 38.9759015 -8.43162563 39.47059923 -13.984375 39.33984375 C-20.0684734 37.58679845 -25.82390137 34.02715387 -29.08984375 28.453125 C-31.65503208 22.32316792 -31.89133712 16.51019845 -29.796875 10.21484375 C-27.55563279 4.90883313 -24.8240189 1.40117677 -19.734375 -1.53515625 C-12.57185988 -3.68391079 -6.7499723 -3.3159829 0 0 Z M-22.796875 9.40234375 C-25.31198866 13.50595025 -25.47291085 17.65878206 -24.984375 22.33984375 C-23.2816134 27.00003338 -21.28186654 29.81740306 -16.984375 32.33984375 C-12.51675466 33.54552318 -9.07402434 33.70991334 -4.671875 32.21484375 C-0.21365297 29.10445629 1.67821558 26.83408545 2.890625 21.46484375 C3.30127041 16.14648491 2.1053327 11.9744053 -0.859375 7.52734375 C-4.24473277 4.04241664 -5.9611952 3.43886115 -10.859375 2.96484375 C-16.10324711 3.1015555 -19.38154638 5.51593532 -22.796875 9.40234375 Z " fill="#CE9034" transform="translate(87.984375,239.66015625)"/>
<path d="M0 0 C19.72980501 0 19.72980501 0 25.99609375 4.40234375 C30.3143075 9.00141693 30.62447539 12.94359645 30.50390625 19.1328125 C29.93597498 22.3642974 28.95467882 24.37775274 27 27 C26.34 27 25.68 27 25 27 C24.814375 27.61875 24.62875 28.2375 24.4375 28.875 C22.70647771 31.43390251 21.17811212 31.98055131 18.21875 32.6953125 C13.81521281 33.30002359 9.43594221 33.10952944 5 33 C5 39.6 5 46.2 5 53 C2.525 53.495 2.525 53.495 0 54 C0 36.18 0 18.36 0 0 Z M5 6 C5 12.93 5 19.86 5 27 C13.17864018 27.80371672 13.17864018 27.80371672 21.0078125 25.9921875 C24.0228388 22.9771612 24.87787268 19.80909347 25.5 15.6875 C24.89879962 11.25364719 23.88376015 9.78639479 20.421875 7.08984375 C15.47991601 4.8659622 10.30144362 5.67207565 5 6 Z " fill="#CC9B4C" transform="translate(25,223)"/>
<path d="M0 0 C4.4105949 0.50406799 6.86093418 1.86093418 10 5 C12.5187836 9.92307704 12.38226759 14.74158345 11 20 C8.9375 23.0625 8.9375 23.0625 7 25 C7.78375 25.763125 8.5675 26.52625 9.375 27.3125 C12.81332382 30.83268868 14.29930502 32.87524306 14.375 37.75 C14.25194336 43.02605335 13.19371894 45.79773823 10 50 C7 52.5 7 52.5 4 54 C1.625 53.75 1.625 53.75 0 53 C0.99 52.34 1.98 51.68 3 51 C-2.28 50.67 -7.56 50.34 -13 50 C-13.02687864 46.54161528 -13.04677983 43.08343775 -13.0625 39.625 C-13.07087891 38.64015625 -13.07925781 37.6553125 -13.08789062 36.640625 C-13.09111328 35.69960938 -13.09433594 34.75859375 -13.09765625 33.7890625 C-13.10289307 32.91975098 -13.10812988 32.05043945 -13.11352539 31.15478516 C-13 29 -13 29 -12 27 C-9.45058627 26.68758629 -6.99638487 26.48696579 -4.4375 26.375 C-3.72658203 26.33632812 -3.01566406 26.29765625 -2.28320312 26.2578125 C-0.52257575 26.16328217 1.23867728 26.08054183 3 26 C3 25.34 3 24.68 3 24 C-2.28 24 -7.56 24 -13 24 C-13 17.4 -13 10.8 -13 4 C-7.39 4 -1.78 4 4 4 C4 3.34 4 2.68 4 2 C2.68 2 1.36 2 0 2 C0 1.34 0 0.68 0 0 Z M-12 5 C-12 10.94 -12 16.88 -12 23 C-3.41065845 23.65858064 -3.41065845 23.65858064 4 20 C6.36968107 17.63031893 6.37023806 16.87986199 6.5 13.625 C6.38362902 10.01168112 6.2351728 9.26783569 3.75 6.4375 C-1.03402046 3.8837113 -6.78073472 4.76803265 -12 5 Z M-12 29 C-12 35.6 -12 42.2 -12 49 C-8.9371875 49.0928125 -8.9371875 49.0928125 -5.8125 49.1875 C-4.08966797 49.23970703 -4.08966797 49.23970703 -2.33203125 49.29296875 C1.32807021 48.97115444 3.09732274 48.20417204 6 46 C8.13061342 42.80407986 8.9839902 40.78448019 9.0625 36.9375 C7.9646014 33.90213329 6.81119268 31.89682916 4.23046875 29.90234375 C-0.84381053 27.84952674 -6.66129903 28.74817448 -12 29 Z " fill="#CC8E30" transform="translate(254,223)"/>
<path d="M0 0 C3 1 3 1 4 3 C4.0951697 4.59279446 4.12794828 6.18952177 4.12939453 7.78515625 C4.13254669 8.7795874 4.13569885 9.77401855 4.13894653 10.79858398 C4.1369223 11.87567627 4.13489807 12.95276855 4.1328125 14.0625 C4.13376923 15.164729 4.13472595 16.26695801 4.13571167 17.40258789 C4.13639306 19.73616594 4.13454163 22.06974589 4.13037109 24.40332031 C4.1250223 27.98506915 4.1303175 31.56669258 4.13671875 35.1484375 C4.13605796 37.41145861 4.13477678 39.67447964 4.1328125 41.9375 C4.13483673 43.01459229 4.13686096 44.09168457 4.13894653 45.20141602 C4.13579437 46.19584717 4.13264221 47.19027832 4.12939453 48.21484375 C4.12859894 49.09261475 4.12780334 49.97038574 4.12698364 50.87475586 C4 53 4 53 3 55 C1.35 55 -0.3 55 -2 55 C-2 37.18 -2 19.36 -2 1 C-1.34 0.67 -0.68 0.34 0 0 Z " fill="#DCBB8B" transform="translate(280,222)"/>
<path d="M0 0 C2.8992226 0.46761655 3.86675182 0.86675182 6 3 C7.051875 2.484375 8.10375 1.96875 9.1875 1.4375 C12.48523767 0.00311817 14.5064368 -0.16452107 18 1 C18 2.32 18 3.64 18 5 C17.06027344 5.30744141 17.06027344 5.30744141 16.1015625 5.62109375 C15.28429687 5.89050781 14.46703125 6.15992188 13.625 6.4375 C12.81289062 6.70433594 12.00078125 6.97117188 11.1640625 7.24609375 C8.98968201 7.95179729 8.98968201 7.95179729 7 9 C5.92437896 12.22686313 5.8279898 14.69937648 5.75390625 18.09375 C5.72103516 19.28871094 5.68816406 20.48367188 5.65429688 21.71484375 C5.59310118 24.23818959 5.5358091 26.76163313 5.48242188 29.28515625 C5.44826172 30.48011719 5.41410156 31.67507813 5.37890625 32.90625 C5.34132202 34.55077148 5.34132202 34.55077148 5.30297852 36.22851562 C5 39 5 39 3 42 C1.68 41.67 0.36 41.34 -1 41 C-1.02464705 35.32169922 -1.04283462 29.64342931 -1.05493164 23.96508789 C-1.05997256 22.03181415 -1.06680519 20.09854424 -1.07543945 18.1652832 C-1.08751565 15.39273128 -1.09323057 12.62022959 -1.09765625 9.84765625 C-1.10281754 8.97786636 -1.10797882 8.10807648 -1.11329651 7.21192932 C-1.11349185 5.14094186 -1.06208168 3.07005676 -1 1 C-0.67 0.67 -0.34 0.34 0 0 Z " fill="#D8B57E" transform="translate(194,237)"/>
<path d="M0 0 C0.33 0 0.66 0 1 0 C1 3.96 1 7.92 1 12 C1.66 12 2.32 12 3 12 C3.33 11.01 3.66 10.02 4 9 C13.57 8.67 23.14 8.34 33 8 C32.67 8.66 32.34 9.32 32 10 C23.09 10 14.18 10 5 10 C7.91238694 18.56047423 7.91238694 18.56047423 11.8125 21.0625 C16.88155225 22.55339772 20.41565939 22.80770305 25.1875 20.375 C28 19 28 19 30.375 19.8125 C30.91125 20.204375 31.4475 20.59625 32 21 C31.875 22.8125 31.875 22.8125 31 25 C25.3416151 28.39503094 20.57735231 29.54811269 14 29 C7.97609469 26.92822696 4.02089349 23.98929625 1.09765625 18.21875 C-1.4693063 12.25677247 -2.06626754 6.19880262 0 0 Z " fill="#C78C2D" transform="translate(152,250)"/>
<path d="M0 0 C0.74886475 0.00523682 1.49772949 0.01047363 2.26928711 0.01586914 C3.07817383 0.0190918 3.88706055 0.02231445 4.72045898 0.02563477 C5.5705957 0.03401367 6.42073242 0.04239258 7.29663086 0.05102539 C8.15063477 0.05553711 9.00463867 0.06004883 9.88452148 0.06469727 C12.00108749 0.07652166 14.11761771 0.0944577 16.23413086 0.11352539 C16.23413086 0.77352539 16.23413086 1.43352539 16.23413086 2.11352539 C11.28413086 2.44352539 6.33413086 2.77352539 1.23413086 3.11352539 C1.23413086 11.03352539 1.23413086 18.95352539 1.23413086 27.11352539 C4.86413086 27.44352539 8.49413086 27.77352539 12.23413086 28.11352539 C11.57413086 28.77352539 10.91413086 29.43352539 10.23413086 30.11352539 C7.26413086 30.11352539 4.29413086 30.11352539 1.23413086 30.11352539 C0.90413086 36.71352539 0.57413086 43.31352539 0.23413086 50.11352539 C-0.75586914 50.11352539 -1.74586914 50.11352539 -2.76586914 50.11352539 C-2.79113752 43.15349092 -2.80870136 36.19346819 -2.82080078 29.23339844 C-2.82584255 26.86360227 -2.83267579 24.49380924 -2.84130859 22.12402344 C-2.85338104 18.725985 -2.85909885 15.32798754 -2.86352539 11.92993164 C-2.86868668 10.86327774 -2.87384796 9.79662384 -2.87916565 8.69764709 C-2.87924118 7.71670578 -2.87931671 6.73576447 -2.87939453 5.72509766 C-2.88161514 4.85683853 -2.88383575 3.98857941 -2.88612366 3.0940094 C-2.73188165 0.5537819 -2.54974534 0.16391975 0 0 Z " fill="#C6831B" transform="translate(27.765869140625,224.886474609375)"/>
<path d="M0 0 C0.79198288 0.0028299 1.58396576 0.00565979 2.39994812 0.00857544 C4.91652874 0.01972387 7.43274664 0.04481828 9.94921875 0.0703125 C11.66080213 0.08034921 13.37239112 0.08947386 15.08398438 0.09765625 C19.26836781 0.11964569 23.45248189 0.15413842 27.63671875 0.1953125 C24.60188287 3.23014838 21.03308763 2.6657706 16.94921875 2.8203125 C16.10085449 2.86333496 15.25249023 2.90635742 14.37841797 2.95068359 C10.30748998 3.13763343 6.28936469 3.22377011 2.21875 3.0078125 C-4.39350461 2.38090394 -4.39350461 2.38090394 -10.36328125 4.57421875 C-13.51403068 8.71852838 -14.36328125 13.06428217 -14.36328125 18.1953125 C-13.70328125 18.5253125 -13.04328125 18.8553125 -12.36328125 19.1953125 C-12.93912557 21.58095327 -13.5855572 23.86214034 -14.36328125 26.1953125 C-14.48248287 28.61225774 -14.54844982 31.00268685 -14.56860352 33.4206543 C-14.57850311 34.15261017 -14.58840271 34.88456604 -14.59860229 35.63870239 C-14.63018136 38.05727915 -14.65496048 40.47587554 -14.6796875 42.89453125 C-14.70026013 44.57176727 -14.72125669 46.24899814 -14.74266052 47.92622375 C-14.79784926 52.34025909 -14.84727264 56.75434096 -14.89550781 61.16845703 C-14.94574618 65.67289369 -15.00142006 70.17726278 -15.05664062 74.68164062 C-15.16418308 83.51947352 -15.26563676 92.35736509 -15.36328125 101.1953125 C-14.70328125 101.5253125 -14.04328125 101.8553125 -13.36328125 102.1953125 C-13.69328125 103.5153125 -14.02328125 104.8353125 -14.36328125 106.1953125 C-15.94646365 103.38427893 -16.6143995 101.36251307 -16.62397766 98.14137268 C-16.63106247 97.34375519 -16.63814728 96.5461377 -16.64544678 95.72434998 C-16.64296936 94.85826614 -16.64049194 93.99218231 -16.63793945 93.09985352 C-16.64305038 92.18071167 -16.64816132 91.26156982 -16.65342712 90.3145752 C-16.66732788 87.27605682 -16.66636601 84.23776514 -16.6640625 81.19921875 C-16.66794909 79.0869895 -16.67228369 76.97476103 -16.67704773 74.86253357 C-16.68451093 70.43494127 -16.68421787 66.00742871 -16.67895508 61.57983398 C-16.67315964 55.90579803 -16.69009289 50.23208841 -16.71329975 44.55810642 C-16.7280308 40.19579662 -16.72890965 35.83356554 -16.72579002 31.47123528 C-16.72630353 29.37925508 -16.73154671 27.2872705 -16.74160194 25.19531441 C-16.75393698 22.27004913 -16.74719218 19.34542108 -16.7355957 16.42016602 C-16.74323944 15.55610641 -16.75088318 14.69204681 -16.75875854 13.80180359 C-16.71768146 9.11429813 -16.41958806 5.99612507 -13.36328125 2.1953125 C-9.17363749 -0.32121425 -4.74709404 -0.06433695 0 0 Z " fill="#F5E18D" transform="translate(330.36328125,247.8046875)"/>
<path d="M0 0 C0.66 0 1.32 0 2 0 C2 16.83 2 33.66 2 51 C6.95 50.67 11.9 50.34 17 50 C21.1697723 50.07772877 25.28086392 50.19753494 29.4375 50.4375 C30.46681641 50.48970703 31.49613281 50.54191406 32.55664062 50.59570312 C35.03828404 50.72267093 37.51921358 50.85741864 40 51 C41.12660396 45.11346119 42.20238561 39.29953725 42.625 33.3125 C42.69976562 32.29800781 42.77453125 31.28351563 42.8515625 30.23828125 C42.90054688 29.49964844 42.94953125 28.76101563 43 28 C43.33 28 43.66 28 44 28 C44 36.25 44 44.5 44 53 C29.48 53 14.96 53 0 53 C0 35.51 0 18.02 0 0 Z " fill="#E5B32C" transform="translate(386,304)"/>
<path d="M0 0 C1.91635217 -0.05423638 3.83314925 -0.09289963 5.75 -0.125 C7.35101563 -0.15980469 7.35101563 -0.15980469 8.984375 -0.1953125 C12.79555397 0.05152552 14.86808673 0.76130246 17.44921875 3.5859375 C17.85785156 4.17632812 18.26648438 4.76671875 18.6875 5.375 C19.10386719 5.96023437 19.52023438 6.54546875 19.94921875 7.1484375 C22.18807757 11.09348984 22.11112311 14.77667391 22.0625 19.25 C22.05347656 20.32765625 22.04445313 21.4053125 22.03515625 22.515625 C22.02355469 23.33546875 22.01195313 24.1553125 22 25 C20.02 25.99 18.04 26.98 16 28 C16.02320312 27.35933594 16.04640625 26.71867187 16.0703125 26.05859375 C16.21350812 19.19543213 16.21050591 13.54208179 11.5 8.125 C9.20515967 6.00319453 9.20515967 6.00319453 7 5 C7 4.34 7 3.68 7 3 C4.69 3 2.38 3 0 3 C0 2.01 0 1.02 0 0 Z " fill="#CD923C" transform="translate(74,239)"/>
<path d="M0 0 C0.99 0.33 1.98 0.66 3 1 C4.2584516 4.7753548 3.52920313 6.0311789 2.19921875 9.734375 C1.79896484 10.86617187 1.39871094 11.99796875 0.98632812 13.1640625 C0.55771484 14.34742188 0.12910156 15.53078125 -0.3125 16.75 C-1.14357926 19.07753573 -1.9730526 21.40564561 -2.80078125 23.734375 C-3.18830566 24.82298828 -3.57583008 25.91160156 -3.97509766 27.03320312 C-5.11440386 30.33116621 -6.10770075 33.62799621 -7 37 C-7.33 37 -7.66 37 -8 37 C-7.67 33.37 -7.34 29.74 -7 26 C-6.34 26 -5.68 26 -5 26 C-5.33 25.34 -5.66 24.68 -6 24 C-8.6855594 26.6855594 -9.06049974 29.37621328 -10 33 C-10.66 33 -11.32 33 -12 33 C-11.37989332 29.49232587 -10.45943064 26.324249 -9.1875 23 C-7.19250693 17.6411865 -5.48326771 12.22342125 -3.83203125 6.75 C-3.24948718 4.82459614 -2.63612401 2.90837204 -2 1 C-1.34 0.67 -0.68 0.34 0 0 Z " fill="#D3A559" transform="translate(146,237)"/>
<path d="M0 0 C2.21322212 1.42278565 3.92126511 2.69980929 5.625 4.6875 C4.965 6.9975 4.305 9.3075 3.625 11.6875 C2.965 11.6875 2.305 11.6875 1.625 11.6875 C0.60633771 10.03217377 -0.39310813 8.36489862 -1.375 6.6875 C-3.70095946 5.52452027 -5.16223231 5.52149309 -7.75 5.5 C-8.52085937 5.48582031 -9.29171875 5.47164062 -10.0859375 5.45703125 C-12.67945066 5.71815288 -14.20823679 6.24144129 -16.375 7.6875 C-17.47993335 9.38700428 -17.47993335 9.38700428 -18.125 11.3125 C-18.74375 12.983125 -18.74375 12.983125 -19.375 14.6875 C-19.705 14.6875 -20.035 14.6875 -20.375 14.6875 C-20.375 12.3775 -20.375 10.0675 -20.375 7.6875 C-19.715 7.6875 -19.055 7.6875 -18.375 7.6875 C-18.375 6.6975 -18.375 5.7075 -18.375 4.6875 C-19.695 5.0175 -21.015 5.3475 -22.375 5.6875 C-15.96620745 -1.27061762 -9.01257338 -3.50488965 0 0 Z " fill="#CC933F" transform="translate(177.375,238.3125)"/>
<path d="M0 0 C0.99 0.66 1.98 1.32 3 2 C-0.3 2.33 -3.6 2.66 -7 3 C-7 3.33 -7 3.66 -7 4 C-4.69 4.33 -2.38 4.66 0 5 C0 5.33 0 5.66 0 6 C-0.66386719 6.09796875 -1.32773438 6.1959375 -2.01171875 6.296875 C-7.30068157 7.19252418 -11.23850999 7.8858703 -15 12 C-17.27710767 16.0987938 -17.53244296 20.40235575 -18 25 C-18.33 25 -18.66 25 -19 25 C-19.33 21.37 -19.66 17.74 -20 14 C-21.35091528 16.70183055 -21.33858058 19.11808206 -21.5625 22.125 C-21.64628906 23.22070312 -21.73007812 24.31640625 -21.81640625 25.4453125 C-21.87699219 26.28835938 -21.93757813 27.13140625 -22 28 C-24.5012827 24.24807594 -24.49678055 21.3390676 -24 17 C-22.63330294 11.28763336 -20.18660355 7.09145347 -16 3 C-10.8465599 0.02686148 -5.86120699 -0.87463748 0 0 Z " fill="#D19E4A" transform="translate(81,237)"/>
<path d="M0 0 C3.75394636 3.63285132 5.1600357 5.4475428 5.3125 10.6875 C5.24321325 16.02257951 4.22925643 18.75097839 1 23 C-2 25.5 -2 25.5 -5 27 C-7.375 26.75 -7.375 26.75 -9 26 C-8.01 25.34 -7.02 24.68 -6 24 C-11.28 23.67 -16.56 23.34 -22 23 C-22 16.07 -22 9.14 -22 2 C-21.67 2 -21.34 2 -21 2 C-21 8.6 -21 15.2 -21 22 C-17.90625 21.814375 -17.90625 21.814375 -14.75 21.625 C-13.00976562 21.52058594 -13.00976562 21.52058594 -11.234375 21.4140625 C-8.25171649 21.03222457 -6.47145356 20.65524603 -4 19 C-1.89699046 15.8092269 -1 13.77523843 -1 9.9375 C-2.24285638 6.28660937 -4.12275902 4.50836393 -7 2 C-5.68 2 -4.36 2 -3 2 C-3 2.66 -3 3.32 -3 4 C-2.01 4 -1.02 4 0 4 C0.66 7.63 1.32 11.26 2 15 C3.21105069 9.49522412 2.8209971 6.85211501 0 2 C0 1.34 0 0.68 0 0 Z " fill="#D6A75D" transform="translate(263,250)"/>
<path d="M0 0 C0.99 0 1.98 0 3 0 C3 17.16 3 34.32 3 52 C2.01 52 1.02 52 0 52 C0 34.84 0 17.68 0 0 Z " fill="#C3811B" transform="translate(279,224)"/>
<path d="M0 0 C4.62 0 9.24 0 14 0 C14 0.33 14 0.66 14 1 C9.71 1 5.42 1 1 1 C1 7.93 1 14.86 1 22 C3.248125 21.979375 5.49625 21.95875 7.8125 21.9375 C14.625 21.875 14.625 21.875 18 23 C17.67 24.32 17.34 25.64 17 27 C11.6088658 28.25168929 6.51858026 28.06648892 1 28 C1 34.6 1 41.2 1 48 C-1.475 48.495 -1.475 48.495 -4 49 C-4 48.34 -4 47.68 -4 47 C-3.01 47 -2.02 47 -1 47 C-1.01160156 45.72382813 -1.02320313 44.44765625 -1.03515625 43.1328125 C-1.04453417 41.46354313 -1.05363437 39.79427217 -1.0625 38.125 C-1.07087891 37.28324219 -1.07925781 36.44148438 -1.08789062 35.57421875 C-1.09111328 34.76855469 -1.09433594 33.96289062 -1.09765625 33.1328125 C-1.10289307 32.38918457 -1.10812988 31.64555664 -1.11352539 30.87939453 C-1 29 -1 29 0 27 C2.9829661 26.40227901 5.96330805 26.25662185 9 26 C4.545 25.01 4.545 25.01 0 24 C0 16.08 0 8.16 0 0 Z " fill="#DEB96D" transform="translate(29,228)"/>
<path d="M0 0 C1.38294718 0.01329757 2.76582404 0.03715018 4.1484375 0.0703125 C4.85484375 0.07933594 5.56125 0.08835938 6.2890625 0.09765625 C8.03399848 0.12123647 9.77876045 0.15710789 11.5234375 0.1953125 C11.5234375 0.5253125 11.5234375 0.8553125 11.5234375 1.1953125 C6.9034375 1.1953125 2.2834375 1.1953125 -2.4765625 1.1953125 C-2.8065625 18.6853125 -3.1365625 36.1753125 -3.4765625 54.1953125 C0.1534375 54.5253125 3.7834375 54.8553125 7.5234375 55.1953125 C7.5234375 55.5253125 7.5234375 55.8553125 7.5234375 56.1953125 C5.73209772 56.24923243 3.94029851 56.28806821 2.1484375 56.3203125 C1.15070313 56.34351563 0.15296875 56.36671875 -0.875 56.390625 C-3.4765625 56.1953125 -3.4765625 56.1953125 -5.4765625 54.1953125 C-5.73052979 51.99414062 -5.73052979 51.99414062 -5.73535156 49.2265625 C-5.74165588 48.19208984 -5.74796021 47.15761719 -5.75445557 46.09179688 C-5.7504071 44.97095703 -5.74635864 43.85011719 -5.7421875 42.6953125 C-5.74410095 41.54869141 -5.7460144 40.40207031 -5.74798584 39.22070312 C-5.74934872 36.79296652 -5.74564517 34.36522266 -5.73730469 31.9375 C-5.72660688 28.21077177 -5.73719681 24.48452564 -5.75 20.7578125 C-5.74867842 18.40364476 -5.74611607 16.04947733 -5.7421875 13.6953125 C-5.74623596 12.57447266 -5.75028442 11.45363281 -5.75445557 10.29882812 C-5.74815125 9.26435547 -5.74184692 8.22988281 -5.73535156 7.1640625 C-5.73376038 6.25076172 -5.73216919 5.33746094 -5.73052979 4.39648438 C-5.27355608 0.43582592 -3.79408798 0.21315101 0 0 Z " fill="#E3AF73" transform="translate(241.4765625,221.8046875)"/>
<path d="M0 0 C0.85857101 0.00707474 1.71714203 0.01414948 2.60173035 0.0214386 C5.33304478 0.04933723 8.06227833 0.11206434 10.79296875 0.17578125 C12.64905885 0.20087011 14.50518121 0.22368226 16.36132812 0.24414062 C20.90183847 0.29914872 25.44080132 0.38538761 29.98046875 0.48828125 C29.65046875 1.80828125 29.32046875 3.12828125 28.98046875 4.48828125 C28.38911133 4.41899414 27.79775391 4.34970703 27.18847656 4.27832031 C20.69128427 3.56654213 14.26447057 3.27418236 7.73046875 3.23828125 C6.7765625 3.21765625 5.82265625 3.19703125 4.83984375 3.17578125 C-0.55421589 3.14581425 -4.36711433 3.43605869 -9.01953125 6.48828125 C-11.37906219 8.84781219 -11.51094538 10.26723742 -12.01953125 13.48828125 C-12.67953125 13.48828125 -13.33953125 13.48828125 -14.01953125 13.48828125 C-14.62897552 6.29683889 -14.62897552 6.29683889 -12.05273438 2.87890625 C-7.936499 -0.36531275 -5.08687416 -0.15868325 0 0 Z " fill="#F1D35A" transform="translate(373.01953125,194.51171875)"/>
<path d="M0 0 C0.33 0 0.66 0 1 0 C1 3.96 1 7.92 1 12 C1.66 12 2.32 12 3 12 C3.33 11.01 3.66 10.02 4 9 C13.57 8.67 23.14 8.34 33 8 C32.67 8.66 32.34 9.32 32 10 C23.09 10 14.18 10 5 10 C7.87460521 18.70669875 7.87460521 18.70669875 12.25 21.0625 C13.1575 21.371875 14.065 21.68125 15 22 C12 23 12 23 9 22 C8.67 22.99 8.34 23.98 8 25 C4.02302209 23.72168567 2.74891393 21.31875268 0.83203125 17.8515625 C-0.73269945 14.36948572 -1.13785758 11.23691396 -1.125 7.4375 C-1.12757813 6.67308594 -1.13015625 5.90867188 -1.1328125 5.12109375 C-1 3 -1 3 0 0 Z " fill="#E6C582" transform="translate(152,250)"/>
<path d="M0 0 C0.625 1.8125 0.625 1.8125 1 4 C0.01 5.485 0.01 5.485 -1 7 C-1.26130674 10.31522083 -1.26130674 10.31522083 -1.16015625 14.125 C-1.15495468 14.82713623 -1.14975311 15.52927246 -1.14439392 16.25268555 C-1.12659732 18.50200131 -1.0955118 20.75086006 -1.0625 23 C-1.02561328 25.93746596 -0.99527298 28.87488914 -0.97265625 31.8125 C-0.96706696 32.51963135 -0.96147766 33.2267627 -0.95571899 33.95532227 C-0.93920985 39.69882863 -1.3523585 45.29673843 -2 51 C3.61 51 9.22 51 15 51 C15 51.33 15 51.66 15 52 C9.06 52 3.12 52 -3 52 C-3.90186622 49.29440133 -4.13479465 47.68175068 -4.16113281 44.89916992 C-4.17074036 44.07789108 -4.1803479 43.25661224 -4.19024658 42.41044617 C-4.19449646 41.52605362 -4.19874634 40.64166107 -4.203125 39.73046875 C-4.20882507 38.81670975 -4.21452515 37.90295074 -4.22039795 36.96150208 C-4.22984418 35.027325 -4.23638043 33.09313185 -4.24023438 31.15893555 C-4.24992873 28.20918464 -4.28095098 25.26013393 -4.3125 22.31054688 C-4.31903148 20.42969163 -4.32428138 18.54883141 -4.328125 16.66796875 C-4.3404718 15.7896489 -4.3528186 14.91132904 -4.36553955 14.00639343 C-4.34652417 8.74273956 -3.96625598 3.96625598 0 0 Z " fill="#EAAC59" transform="translate(407,144)"/>
<path d="M0 0 C1.32 0.33 2.64 0.66 4 1 C4 1.99 4 2.98 4 4 C4.66 4 5.32 4 6 4 C5.67 4.99 5.34 5.98 5 7 C4.34 7 3.68 7 3 7 C3 17.23 3 27.46 3 38 C2.01 38 1.02 38 0 38 C0 25.46 0 12.92 0 0 Z " fill="#C97E0E" transform="translate(194,239)"/>
<path d="M0 0 C0.33 0.99 0.66 1.98 1 3 C1.66 3 2.32 3 3 3 C3.08226668 6.04386724 2.97608217 8.07175348 2 11 C2.33 11.33 2.66 11.66 3 12 C2.835 13.0725 2.67 14.145 2.5 15.25 C2.02811662 18.78912538 2.29996414 20.60127519 3 24 C3.08920667 25.87334014 3.13016654 27.74954421 3.125 29.625 C3.12757813 30.56601563 3.13015625 31.50703125 3.1328125 32.4765625 C3 35 3 35 2 38 C2.66 38 3.32 38 4 38 C4 38.66 4 39.32 4 40 C5.24716797 39.85691406 5.24716797 39.85691406 6.51953125 39.7109375 C7.60621094 39.60007813 8.69289063 39.48921875 9.8125 39.375 C10.89144531 39.25898438 11.97039062 39.14296875 13.08203125 39.0234375 C16 39 16 39 19 41 C12.73 41 6.46 41 0 41 C0 27.47 0 13.94 0 0 Z " fill="#EECE50" transform="translate(359,208)"/>
<path d="M0 0 C4.39600078 0.50240009 6.90775631 1.82186065 10 5 C10.8125 8.25 10.8125 8.25 11 11 C10.67 10.01 10.34 9.02 10 8 C9.01 8.495 9.01 8.495 8 9 C8 11.64 8 14.28 8 17 C7.34 17 6.68 17 6 17 C5.90234375 15.01432292 5.8046875 13.02864583 5.70703125 11.04296875 C5.13144888 8.79028355 5.13144888 8.79028355 2.84375 7.28125 C-0.3453427 5.84440604 -2.83012954 5.50383904 -6.3125 5.3125 C-8.189375 5.209375 -10.06625 5.10625 -12 5 C-12 10.94 -12 16.88 -12 23 C-5.565 22.505 -5.565 22.505 1 22 C1 22.66 1 23.32 1 24 C-3.62 24 -8.24 24 -13 24 C-13 17.4 -13 10.8 -13 4 C-7.39 4 -1.78 4 4 4 C4 3.34 4 2.68 4 2 C2.68 2 1.36 2 0 2 C0 1.34 0 0.68 0 0 Z " fill="#DCAC67" transform="translate(254,223)"/>
<path d="M0 0 C2 0.1875 2 0.1875 4 1 C6.2171468 4.32572019 6.52018512 6.33074959 7.0625 10.25 C7.22621094 11.40371094 7.38992187 12.55742187 7.55859375 13.74609375 C7.70425781 14.81988281 7.84992188 15.89367187 8 17 C8.20737414 18.43763869 8.41545182 19.87517659 8.625 21.3125 C8.74875 22.199375 8.8725 23.08625 9 24 C8.34 24 7.68 24 7 24 C6.73445312 23.00097656 6.46890625 22.00195312 6.1953125 20.97265625 C5.83896002 19.66915639 5.48216632 18.3657771 5.125 17.0625 C4.95097656 16.40314453 4.77695313 15.74378906 4.59765625 15.06445312 C4.12523763 13.358497 3.56784972 11.67660739 3 10 C2.34 9.67 1.68 9.34 1 9 C1 9.99 1 10.98 1 12 C-0.98 12.99 -0.98 12.99 -3 14 C-2.88617347 12.04098546 -2.75858875 10.0827662 -2.625 8.125 C-2.55539063 7.03445312 -2.48578125 5.94390625 -2.4140625 4.8203125 C-2 2 -2 2 0 0 Z " fill="#C4821A" transform="translate(122,239)"/>
<path d="M0 0 C0.79056793 0.00424484 1.58113586 0.00848969 2.3956604 0.01286316 C4.9021519 0.02955574 7.40781711 0.06718892 9.9140625 0.10546875 C11.62108208 0.12052783 13.32811435 0.13421409 15.03515625 0.14648438 C19.20343975 0.17942819 23.37111139 0.23114382 27.5390625 0.29296875 C24.50513801 3.32689324 20.93489647 2.76580958 16.8515625 2.91796875 C16.00392334 2.95664063 15.15628418 2.9953125 14.28295898 3.03515625 C7.69759592 3.31183661 1.13344996 3.34621815 -5.45703125 3.23046875 C-9.05997306 3.29282646 -9.05997306 3.29282646 -12.4609375 4.29296875 C-12.7909375 5.28296875 -13.1209375 6.27296875 -13.4609375 7.29296875 C-14.1209375 7.29296875 -14.7809375 7.29296875 -15.4609375 7.29296875 C-15.3359375 5.48046875 -15.3359375 5.48046875 -14.4609375 3.29296875 C-9.55186347 0.14757422 -5.62127028 -0.11505655 0 0 Z " fill="#F7E7A1" transform="translate(330.4609375,247.70703125)"/>
<path d="M0 0 C2 1 2 1 2 1 Z M3 0 C3.495 0.99 3.495 0.99 4 2 C3.67 2.99 3.34 3.98 3 5 C-9.54 5 -22.08 5 -35 5 C-35 4.34 -35 3.68 -35 3 C-30.94346228 2.83193037 -26.88670199 2.67142051 -22.82958984 2.51782227 C-21.45027681 2.46454755 -20.07104107 2.40923018 -18.69189453 2.35180664 C-16.70627168 2.2694899 -14.72032137 2.19519623 -12.734375 2.12109375 C-10.94338379 2.05039673 -10.94338379 2.05039673 -9.11621094 1.97827148 C-6 2 -6 2 -3.70410156 2.61743164 C-3.14174805 2.7436792 -2.57939453 2.86992676 -2 3 C-1.34 2.34 -0.68 1.68 0 1 C0.66 1 1.32 1 2 1 C2.33 0.67 2.66 0.34 3 0 Z " fill="#BC7E16" transform="translate(466,352)"/>
<path d="M0 0 C1.7774334 -0.02398109 1.7774334 -0.02398109 3.59077454 -0.04844666 C5.52040291 -0.05649071 5.52040291 -0.05649071 7.48901367 -0.06469727 C8.8060881 -0.07372574 10.12316254 -0.08275421 11.48014832 -0.09205627 C14.27194672 -0.10855976 17.06362504 -0.11624846 19.85546875 -0.11914062 C23.42691884 -0.12451763 26.99723409 -0.16216061 30.56836414 -0.20788479 C33.97940884 -0.24485555 37.39027539 -0.24617207 40.80151367 -0.25219727 C42.722033 -0.28149574 42.722033 -0.28149574 44.68135071 -0.31138611 C54.55791296 -0.26112953 54.55791296 -0.26112953 57.69091797 2.71630859 C59.34448242 5.30639648 59.34448242 5.30639648 59.34448242 7.30639648 C57.69448242 7.96639648 56.04448242 8.62639648 54.34448242 9.30639648 C54.34448242 7.32639648 54.34448242 5.34639648 54.34448242 3.30639648 C51.16608551 2.24693085 48.92602894 2.18575353 45.58789062 2.19287109 C44.40689285 2.19294662 43.22589508 2.19302216 42.0091095 2.19309998 C40.09650581 2.2008419 40.09650581 2.2008419 38.14526367 2.20874023 C36.18728096 2.21086266 36.18728096 2.21086266 34.18974304 2.21302795 C30.72258586 2.21684268 27.25547069 2.22666405 23.78833008 2.23773193 C20.2491106 2.24796851 16.70988432 2.25253039 13.1706543 2.25756836 C6.22857977 2.26828726 -0.71346689 2.28535115 -7.65551758 2.30639648 C-4.99759123 -0.35152986 -3.71358096 0.03776075 0 0 Z " fill="#D8AB39" transform="translate(415.655517578125,141.693603515625)"/>
<path d="M0 0 C0.8723412 2.99480917 1.10829766 5.63575911 1.0625 8.75 C1.05347656 9.54921875 1.04445312 10.3484375 1.03515625 11.171875 C1.01775391 12.07679688 1.01775391 12.07679688 1 13 C1.66 13 2.32 13 3 13 C4.32 16.63 5.64 20.26 7 24 C0.39240506 22.53164557 0.39240506 22.53164557 -1.2109375 20.359375 C-2.27633175 17.1737407 -2.26421254 14.35416044 -2.25 11 C-2.25515625 9.783125 -2.2603125 8.56625 -2.265625 7.3125 C-2.01981559 4.24711209 -1.6149234 2.56337048 0 0 Z " fill="#CB8A2E" transform="translate(61,249)"/>
<path d="M0 0 C0.33 0 0.66 0 1 0 C1 2.31 1 4.62 1 7 C8.59 7 16.18 7 24 7 C20.32133776 9.4524415 17.32929696 9.37012435 13.0625 9.5 C6.7078644 9.53109911 6.7078644 9.53109911 1 12 C0.67 12.66 0.34 13.32 0 14 C-0.66 14 -1.32 14 -2 14 C-2.05389087 12.04196493 -2.09274217 10.08351091 -2.125 8.125 C-2.14820313 7.03445312 -2.17140625 5.94390625 -2.1953125 4.8203125 C-2 2 -2 2 0 0 Z " fill="#C68015" transform="translate(155,248)"/>
<path d="M0 0 C0.99 0.33 1.98 0.66 3 1 C4.35304209 5.05912626 3.15216503 6.77149591 1.5625 10.6875 C1.08941406 11.86699219 0.61632812 13.04648438 0.12890625 14.26171875 C-0.24363281 15.16535156 -0.61617187 16.06898438 -1 17 C-1.66 17 -2.32 17 -3 17 C-3 17.99 -3 18.98 -3 20 C-3.66 20 -4.32 20 -5 20 C-3.70473538 6.61559889 -3.70473538 6.61559889 -2 1 C-1.34 0.67 -0.68 0.34 0 0 Z " fill="#D09F53" transform="translate(146,237)"/>
<path d="M0 0 C2.38227313 1.82766986 2.95881499 2.7165502 3.3984375 5.7421875 C3.39070313 6.77601563 3.38296875 7.80984375 3.375 8.875 C3.38273437 9.90367187 3.39046875 10.93234375 3.3984375 11.9921875 C2.95139587 15.36691356 2.04467033 17.29704556 0 20 C-0.66 20 -1.32 20 -2 20 C-2.66 21.32 -3.32 22.64 -4 24 C-4.66 23.67 -5.32 23.34 -6 23 C-5.67 22.34 -5.34 21.68 -5 21 C-5.99 21 -6.98 21 -8 21 C-7.34 19.68 -6.68 18.36 -6 17 C-4.35 17.33 -2.7 17.66 -1 18 C-1.01160156 17.40832031 -1.02320313 16.81664062 -1.03515625 16.20703125 C-1.08353763 11.97020488 -0.94815029 8.14815751 0 4 C0 2.68 0 1.36 0 0 Z " fill="#D19E50" transform="translate(52,230)"/>
<path d="M0 0 C0.99 0.33 1.98 0.66 3 1 C3.34833144 5.87664009 2.41685712 8.77050005 0 13 C-1.32 12.67 -2.64 12.34 -4 12 C-4 9.03 -4 6.06 -4 3 C-3.34 2.67 -2.68 2.34 -2 2 C-1.34 2.33 -0.68 2.66 0 3 C0 2.01 0 1.02 0 0 Z " fill="#C78320" transform="translate(114,266)"/>
<path d="M0 0 C0.33 0 0.66 0 1 0 C1 1.98 1 3.96 1 6 C1.99 5.67 2.98 5.34 4 5 C3.17812739 9.38332057 2.09845718 13.67940177 1 18 C-0.32 18.33 -1.64 18.66 -3 19 C-2.88485851 16.95775363 -2.75742674 14.91619841 -2.625 12.875 C-2.55539063 11.73804688 -2.48578125 10.60109375 -2.4140625 9.4296875 C-2.00556124 6.04606384 -1.19032431 3.18387559 0 0 Z " fill="#D5AA65" transform="translate(119,246)"/>
<path d="M0 0 C-2.85410334 1.50560497 -5.68124642 2.63216796 -8.75 3.625 C-9.54921875 3.88539063 -10.3484375 4.14578125 -11.171875 4.4140625 C-11.77515625 4.60742188 -12.3784375 4.80078125 -13 5 C-11.68 5.66 -10.36 6.32 -9 7 C-9.8971875 7.2784375 -9.8971875 7.2784375 -10.8125 7.5625 C-14.09981799 9.72273753 -14.64854687 12.35107655 -16 16 C-16.33 16 -16.66 16 -17 16 C-17 13.69 -17 11.38 -17 9 C-16.34 9 -15.68 9 -15 9 C-15 8.01 -15 7.02 -15 6 C-16.32 6.33 -17.64 6.66 -19 7 C-12.93907273 0.41956468 -8.60179724 -0.33732538 0 0 Z " fill="#D4A75F" transform="translate(174,237)"/>
<path d="M0 0 C0.4846875 0.28875 0.969375 0.5775 1.46875 0.875 C6.62101647 3.72856297 10.12964063 4.41931138 16 4 C16 4.66 16 5.32 16 6 C13.75487738 7.12256131 12.48543351 7.13413762 10 7.125 C8.948125 7.12886719 8.948125 7.12886719 7.875 7.1328125 C6 7 6 7 4 6 C4 6.99 4 7.98 4 9 C0.08597051 7.73058503 -1.79072873 6.48832306 -4 3 C-1.525 3.495 -1.525 3.495 1 4 C0.67 2.68 0.34 1.36 0 0 Z " fill="#CF9B4E" transform="translate(66,268)"/>
<path d="M0 0 C0.86140091 0.0028299 1.72280182 0.00565979 2.61030579 0.00857544 C5.36143894 0.01977013 8.1122465 0.04487329 10.86328125 0.0703125 C12.72851092 0.08034323 14.5937457 0.08946891 16.45898438 0.09765625 C21.03137545 0.11970712 25.60352314 0.15423201 30.17578125 0.1953125 C30.17578125 0.5253125 30.17578125 0.8553125 30.17578125 1.1953125 C17.63578125 1.1953125 5.09578125 1.1953125 -7.82421875 1.1953125 C-8.48421875 2.5153125 -9.14421875 3.8353125 -9.82421875 5.1953125 C-11.94921875 6.4453125 -11.94921875 6.4453125 -13.82421875 7.1953125 C-11.27038161 -0.26974992 -7.18153026 -0.08850576 0 0 Z " fill="#EAD684" transform="translate(372.82421875,194.8046875)"/>
<path d="M0 0 C0.66 0.33 1.32 0.66 2 1 C2 1.66 2 2.32 2 3 C2.66 3 3.32 3 4 3 C4 6.96 4 10.92 4 15 C2.02 15.99 0.04 16.98 -2 18 C-2 17.34 -2 16.68 -2 16 C-1.34 16 -0.68 16 0 16 C0.02715383 14.25008666 0.04646551 12.50005055 0.0625 10.75 C0.07410156 9.77546875 0.08570312 8.8009375 0.09765625 7.796875 C0.01180181 5.33800393 -0.3986897 3.36190351 -1 1 C-0.67 0.67 -0.34 0.34 0 0 Z " fill="#C98C31" transform="translate(92,249)"/>
<path d="M0 0 C0.66 0 1.32 0 2 0 C2.02698422 2.43757413 2.04683099 4.87484915 2.0625 7.3125 C2.07087891 8.00279297 2.07925781 8.69308594 2.08789062 9.40429688 C2.10307906 12.5483025 2.00193327 14.99420019 1 18 C1.66 18 2.32 18 3 18 C3 18.66 3 19.32 3 20 C4.24716797 19.85691406 4.24716797 19.85691406 5.51953125 19.7109375 C6.60621094 19.60007813 7.69289063 19.48921875 8.8125 19.375 C9.89144531 19.25898438 10.97039062 19.14296875 12.08203125 19.0234375 C15 19 15 19 18 21 C12.06 21 6.12 21 0 21 C0 14.07 0 7.14 0 0 Z " fill="#ECC940" transform="translate(360,228)"/>
<path d="M0 0 C0.33 0 0.66 0 1 0 C1 1.65 1 3.3 1 5 C0.34 5 -0.32 5 -1 5 C-1.06058594 5.77085937 -1.12117187 6.54171875 -1.18359375 7.3359375 C-1.30927734 8.84027344 -1.30927734 8.84027344 -1.4375 10.375 C-1.51871094 11.37273437 -1.59992188 12.37046875 -1.68359375 13.3984375 C-2 16 -2 16 -3 18 C-4.32 18 -5.64 18 -7 18 C-7 16.02 -7 14.04 -7 12 C-6.01 11.67 -5.02 11.34 -4 11 C-3.25881795 8.68925595 -2.59793673 6.35188447 -2 4 C-1.37530495 2.64649406 -0.7283669 1.30065517 0 0 Z " fill="#C58015" transform="translate(140,258)"/>
<path d="M0 0 C0.99 0.66 1.98 1.32 3 2 C-0.3 2.33 -3.6 2.66 -7 3 C-7 3.33 -7 3.66 -7 4 C-4.69 4.33 -2.38 4.66 0 5 C0 5.33 0 5.66 0 6 C-3.3 6.33 -6.6 6.66 -10 7 C-9.67 5.68 -9.34 4.36 -9 3 C-11.64 3.66 -14.28 4.32 -17 5 C-15.65663782 2.31327564 -13.81338729 1.70606879 -11.109375 0.60546875 C-7.46114728 -0.44170772 -3.7485908 -0.55938274 0 0 Z " fill="#D8AC6E" transform="translate(81,237)"/>
<path d="M0 0 C-0.33 0.99 -0.66 1.98 -1 3 C-3.29045368 3.22127098 -5.58244764 3.4266504 -7.875 3.625 C-9.78925781 3.79902344 -9.78925781 3.79902344 -11.7421875 3.9765625 C-12.81726563 3.98429688 -13.89234375 3.99203125 -15 4 C-15.66 3.34 -16.32 2.68 -17 2 C-5.47835991 -1.62870159 -5.47835991 -1.62870159 0 0 Z " fill="#C4801C" transform="translate(176,239)"/>
<path d="M0 0 C1.32 0 2.64 0 4 0 C5.125 6.75 5.125 6.75 4 9 C3.77532169 10.53668865 3.59203195 12.07968054 3.4375 13.625 C3.35371094 14.44226563 3.26992188 15.25953125 3.18359375 16.1015625 C3.12300781 16.72804687 3.06242187 17.35453125 3 18 C1.68 18.33 0.36 18.66 -1 19 C-0.42415568 16.61435923 0.22227595 14.33317216 1 12 C1.1544533 7.82976082 0.98388771 4.05853682 0 0 Z " fill="#C58C38" transform="translate(48,230)"/>
<path d="M0 0 C1.32 0.33 2.64 0.66 4 1 C4 1.66 4 2.32 4 3 C3.34 3 2.68 3 2 3 C1.67 14.22 1.34 25.44 1 37 C1.66 37.33 2.32 37.66 3 38 C2.01 38 1.02 38 0 38 C0 25.46 0 12.92 0 0 Z " fill="#BF8020" transform="translate(194,239)"/>
<path d="M0 0 C0.33 0 0.66 0 1 0 C1 6.6 1 13.2 1 20 C-0.65 20.33 -2.3 20.66 -4 21 C-4 20.34 -4 19.68 -4 19 C-3.01 19 -2.02 19 -1 19 C-1.01160156 17.71222656 -1.02320313 16.42445313 -1.03515625 15.09765625 C-1.0445327 13.41927228 -1.05363305 11.74088674 -1.0625 10.0625 C-1.07087891 9.21236328 -1.07925781 8.36222656 -1.08789062 7.48632812 C-1.09111328 6.67744141 -1.09433594 5.86855469 -1.09765625 5.03515625 C-1.10289307 4.2862915 -1.10812988 3.53742676 -1.11352539 2.76586914 C-1 1 -1 1 0 0 Z " fill="#DDC385" transform="translate(29,256)"/>
<path d="M0 0 C0.33 0 0.66 0 1 0 C1 7.92 1 15.84 1 24 C-0.98 24 -2.96 24 -5 24 C-4.34 23.67 -3.68 23.34 -3 23 C-0.87348039 15.59192841 -0.50763027 7.65453012 0 0 Z " fill="#EAB022" transform="translate(429,332)"/>
<path d="M0 0 C0.8125 1.6875 0.8125 1.6875 1 4 C-1.4375 6.75 -1.4375 6.75 -4 9 C-4 8.01 -4 7.02 -4 6 C-5.1446875 6.5259375 -5.1446875 6.5259375 -6.3125 7.0625 C-9 8 -9 8 -12 7 C-11.38125 6.9175 -10.7625 6.835 -10.125 6.75 C-9.073125 6.37875 -9.073125 6.37875 -8 6 C-7.690625 5.34 -7.38125 4.68 -7.0625 4 C-6.711875 3.34 -6.36125 2.68 -6 2 C-3.4375 1.3125 -3.4375 1.3125 -1 1 C-0.67 0.67 -0.34 0.34 0 0 Z " fill="#D4A35D" transform="translate(94,264)"/>
<path d="M0 0 C0 1.32 0 2.64 0 4 C-3.3 4 -6.6 4 -10 4 C-10 3.01 -10 2.02 -10 1 C-6.21812119 -0.83691257 -4.05431692 -1.15837626 0 0 Z " fill="#C8953E" transform="translate(212,238)"/>
<path d="M0 0 C0.99 0.33 1.98 0.66 3 1 C3 1.99 3 2.98 3 4 C3.66 4 4.32 4 5 4 C5.125 9.75 5.125 9.75 4 12 C1.4375 12.625 1.4375 12.625 -1 13 C-1 12.01 -1 11.02 -1 10 C-0.34 10 0.32 10 1 10 C0.67 6.7 0.34 3.4 0 0 Z " fill="#C88722" transform="translate(261,230)"/>
<path d="M0 0 C0.66 0 1.32 0 2 0 C2 0.66 2 1.32 2 2 C2.66 2 3.32 2 4 2 C6.35785972 6.5683532 6.42484112 10.97106679 6 16 C5.67 16.66 5.34 17.32 5 18 C4.34 18 3.68 18 3 18 C3.04125 16.824375 3.0825 15.64875 3.125 14.4375 C3.13225792 10.34403186 2.29865281 6.89595844 1 3 C0.67 2.01 0.34 1.02 0 0 Z " fill="#D0A155" transform="translate(87,247)"/>
<path d="M0 0 C0.99 0 1.98 0 3 0 C3.125 7.75 3.125 7.75 2 10 C1.34 10 0.68 10 0 10 C0 10.99 0 11.98 0 13 C-0.66 13 -1.32 13 -2 13 C-1.85769192 11.58297487 -1.71099254 10.1663904 -1.5625 8.75 C-1.48128906 7.96109375 -1.40007812 7.1721875 -1.31640625 6.359375 C-1.02365007 4.17635361 -0.57935581 2.1226818 0 0 Z " fill="#C88023" transform="translate(143,244)"/>
<path d="M0 0 C3 1 3 1 3.9140625 2.75 C5.63525376 8.19728662 6.54775183 13.301673 7 19 C3.37825721 15.37825721 2.12043782 9.96715106 1.8125 4.9375 C1.874375 4.298125 1.93625 3.65875 2 3 C1.34 3 0.68 3 0 3 C0 2.01 0 1.02 0 0 Z " fill="#DAAB68" transform="translate(123,248)"/>
<path d="M0 0 C0.84062397 3.09773244 1.08935201 5.78332751 1 9 C1.66 9 2.32 9 3 9 C2.67 10.98 2.34 12.96 2 15 C1.67 14.01 1.34 13.02 1 12 C0.34 12 -0.32 12 -1 12 C-1.33 12.66 -1.66 13.32 -2 14 C-2.66 14 -3.32 14 -4 14 C-3.24964259 10.88200997 -2.36636589 7.81929597 -1.4375 4.75 C-1.16808594 3.85796875 -0.89867188 2.9659375 -0.62109375 2.046875 C-0.41613281 1.37140625 -0.21117188 0.6959375 0 0 Z " fill="#DDAF6E" transform="translate(116,255)"/>
<path d="M0 0 C3.3 0 6.6 0 10 0 C10.33 0.99 10.66 1.98 11 3 C7.18243176 4.37432457 3.92744671 3.67975039 0 3 C0 2.01 0 1.02 0 0 Z " fill="#C58016" transform="translate(74,239)"/>
<path d="M0 0 C1.98 0.66 3.96 1.32 6 2 C4.515 4.475 4.515 4.475 3 7 C0.64046906 4.64046906 0.50858587 3.22104383 0 0 Z M1 7 C2.485 7.99 2.485 7.99 4 9 C3.67 10.32 3.34 11.64 3 13 C2.34 13 1.68 13 1 13 C1 11.02 1 9.04 1 7 Z " fill="#E3A712" transform="translate(465,143)"/>
<path d="M0 0 C4.29 0.66 8.58 1.32 13 2 C13 2.33 13 2.66 13 3 C11.081875 3.4640625 11.081875 3.4640625 9.125 3.9375 C5.013365 4.9322504 3.4594472 5.31082921 1 9 C1.33 7.02 1.66 5.04 2 3 C1.34 3 0.68 3 0 3 C0 2.01 0 1.02 0 0 Z " fill="#DAA55E" transform="translate(198,240)"/>
<path d="M0 0 C1.9375 0.25 1.9375 0.25 4 1 C6 4 6 4 6 7 C5.01 6.67 4.02 6.34 3 6 C2.67 5.34 2.34 4.68 2 4 C0.02 4.99 0.02 4.99 -2 6 C-1.125 1.125 -1.125 1.125 0 0 Z " fill="#CD9F54" transform="translate(122,239)"/>
<path d="M0 0 C1.66611905 -0.042721 3.33382885 -0.04063832 5 0 C5.33 0.33 5.66 0.66 6 1 C7.84891946 1.23363881 9.70488031 1.41303635 11.5625 1.5625 C12.57441406 1.64628906 13.58632812 1.73007812 14.62890625 1.81640625 C15.80259766 1.90728516 15.80259766 1.90728516 17 2 C13.1350831 4.11810948 10.44020228 4.38277606 6 4 C2.5625 2.5 2.5625 2.5 0 1 C0 0.67 0 0.34 0 0 Z " fill="#D6AA60" transform="translate(160,275)"/>
<path d="M0 0 C0.625 1.8125 0.625 1.8125 1 4 C0.01 5.485 0.01 5.485 -1 7 C-1.165 8.19625 -1.33 9.3925 -1.5 10.625 C-1.665 11.73875 -1.83 12.8525 -2 14 C-2.99 14.495 -2.99 14.495 -4 15 C-4.29268781 9.34136895 -4.03522952 5.97777642 -1 1 C-0.67 0.67 -0.34 0.34 0 0 Z " fill="#E6B667" transform="translate(407,144)"/>
<path d="M0 0 C2.64 1.65 5.28 3.3 8 5 C5 6 5 6 2 5 C1.67 5.99 1.34 6.98 1 8 C-0.9375 7.1875 -0.9375 7.1875 -3 6 C-3.33 5.01 -3.66 4.02 -4 3 C-2.68 3.33 -1.36 3.66 0 4 C0 2.68 0 1.36 0 0 Z " fill="#D6A55C" transform="translate(159,267)"/>
<path d="M0 0 C0.66 0 1.32 0 2 0 C1.67 3.3 1.34 6.6 1 10 C0.01 10.33 -0.98 10.66 -2 11 C-1.85957123 9.35369672 -1.71250671 7.70795821 -1.5625 6.0625 C-1.48128906 5.14597656 -1.40007812 4.22945313 -1.31640625 3.28515625 C-1 1 -1 1 0 0 Z " fill="#C2821E" transform="translate(118,254)"/>
<path d="M0 0 C1.98 0.66 3.96 1.32 6 2 C6 2.66 6 3.32 6 4 C4.68 4 3.36 4 2 4 C2.33 5.32 2.66 6.64 3 8 C1.02 7.01 -0.96 6.02 -3 5 C-2.505 4.54625 -2.01 4.0925 -1.5 3.625 C0.22609337 2.12364481 0.22609337 2.12364481 0 0 Z " fill="#D3A352" transform="translate(84,239)"/>
<path d="M0 0 C-0.66 1.32 -1.32 2.64 -2 4 C-5.3 4 -8.6 4 -12 4 C-12.33 3.34 -12.66 2.68 -13 2 C-12.06027344 1.90912109 -12.06027344 1.90912109 -11.1015625 1.81640625 C-9.87566406 1.69072266 -9.87566406 1.69072266 -8.625 1.5625 C-7.81289062 1.48128906 -7.00078125 1.40007812 -6.1640625 1.31640625 C-3.85304959 0.97851447 -2.33455672 0 0 0 Z " fill="#CF9643" transform="translate(178,271)"/>
<path d="M0 0 C-0.99 0.66 -1.98 1.32 -3 2 C-3.66 1.67 -4.32 1.34 -5 1 C-5.103125 1.53625 -5.20625 2.0725 -5.3125 2.625 C-6.18092697 5.62502044 -7.55620296 8.2379535 -9 11 C-10.37351794 7.87836832 -9.89111525 6.66188419 -8.8125 3.3125 C-7 0 -7 0 -5 -1 C-3 -1 -3 -1 0 0 Z " fill="#E2A816" transform="translate(415,144)"/>
<path d="M0 0 C0.33 0 0.66 0 1 0 C0.8125 3.3125 0.8125 3.3125 0 7 C-2.5625 8.9375 -2.5625 8.9375 -5 10 C-4.67 8.35 -4.34 6.7 -4 5 C-3.34 5 -2.68 5 -2 5 C-1.7834375 4.0409375 -1.7834375 4.0409375 -1.5625 3.0625 C-1 1 -1 1 0 0 Z " fill="#C79B47" transform="translate(474,347)"/>
<path d="M0 0 C2.23551759 3.35327639 2.17283528 3.90743657 1.625 7.6875 C1.51414063 8.49574219 1.40328125 9.30398437 1.2890625 10.13671875 C1.19367188 10.75160156 1.09828125 11.36648438 1 12 C0.34 12 -0.32 12 -1 12 C-1.02698189 10.37509046 -1.04638757 8.75005367 -1.0625 7.125 C-1.07410156 6.22007812 -1.08570313 5.31515625 -1.09765625 4.3828125 C-1 2 -1 2 0 0 Z " fill="#C77F16" transform="translate(182,245)"/>
<path d="M0 0 C3.78611227 0.54087318 5.55400767 2.11722332 8 5 C8 5.66 8 6.32 8 7 C6.35 7.66 4.7 8.32 3 9 C3 7.02 3 5.04 3 3 C2.01 2.67 1.02 2.34 0 2 C0 1.34 0 0.68 0 0 Z " fill="#E6BD57" transform="translate(467,142)"/>
<path d="M0 0 C1 3 1 3 -0.4375 6.1875 C-1.2109375 7.5796875 -1.2109375 7.5796875 -2 9 C-3.32 8.67 -4.64 8.34 -6 8 C-5.67 6.68 -5.34 5.36 -5 4 C-5 4.66 -5 5.32 -5 6 C-4.01 6 -3.02 6 -2 6 C-1.855625 5.195625 -1.71125 4.39125 -1.5625 3.5625 C-1 1 -1 1 0 0 Z " fill="#CDA65B" transform="translate(116,270)"/>
<path d="M0 0 C1.32 0 2.64 0 4 0 C3.67 0.99 3.34 1.98 3 3 C2.77548542 5.22574335 2.59217122 7.45581519 2.4375 9.6875 C2.35371094 10.86699219 2.26992187 12.04648438 2.18359375 13.26171875 C2.12300781 14.16535156 2.06242188 15.06898438 2 16 C1.67 16 1.34 16 1 16 C0.67 10.72 0.34 5.44 0 0 Z " fill="#C87E13" transform="translate(238,225)"/>
<path d="M0 0 C0.66 0 1.32 0 2 0 C2.33 1.98 2.66 3.96 3 6 C4.32 6 5.64 6 7 6 C7.33 5.34 7.66 4.68 8 4 C7.6875 5.9375 7.6875 5.9375 7 8 C6.01 8.33 5.02 8.66 4 9 C2 8 2 8 1.3671875 6.15234375 C1.20476562 5.42144531 1.04234375 4.69054687 0.875 3.9375 C0.70742187 3.20402344 0.53984375 2.47054688 0.3671875 1.71484375 C0.24601563 1.14894531 0.12484375 0.58304687 0 0 Z " fill="#D9B578" transform="translate(130,270)"/>
<path d="M0 0 C0.66 0.66 1.32 1.32 2 2 C1.69903201 6.13830989 1.32101984 8.51847024 -1 12 C-1.02687279 10.18757948 -1.04633715 8.37504767 -1.0625 6.5625 C-1.07410156 5.55316406 -1.08570313 4.54382813 -1.09765625 3.50390625 C-1 1 -1 1 0 0 Z " fill="#C57F19" transform="translate(265,256)"/>
<path d="M0 0 C0.33 0.99 0.66 1.98 1 3 C-2.3 3 -5.6 3 -9 3 C-8 1 -8 1 -6.1875 0.375 C-4 0 -4 0 0 0 Z " fill="#C77F0F" transform="translate(257,247)"/>
<path d="M0 0 C0.33 0.66 0.66 1.32 1 2 C2.65 1.67 4.3 1.34 6 1 C5 4 5 4 2.9375 5.1875 C2.298125 5.455625 1.65875 5.72375 1 6 C1 5.01 1 4.02 1 3 C-0.32 3.33 -1.64 3.66 -3 4 C-2.01 2.68 -1.02 1.36 0 0 Z " fill="#D8A763" transform="translate(259,241)"/>
<path d="M0 0 C-0.66 0 -1.32 0 -2 0 C-1.67 1.32 -1.34 2.64 -1 4 C-1.56203125 3.68289062 -2.1240625 3.36578125 -2.703125 3.0390625 C-5.15196317 1.93125475 -7.08387855 1.61024601 -9.75 1.375 C-10.54921875 1.30023438 -11.3484375 1.22546875 -12.171875 1.1484375 C-12.77515625 1.09945312 -13.3784375 1.05046875 -14 1 C-14 0.67 -14 0.34 -14 0 C-12.41773035 -0.19627391 -10.83410729 -0.38165538 -9.25 -0.5625 C-8.36828125 -0.66691406 -7.4865625 -0.77132812 -6.578125 -0.87890625 C-4.11567549 -0.99456676 -2.33461936 -0.73638695 0 0 Z " fill="#D9A961" transform="translate(179,242)"/>
<path d="M0 0 C0.33 0.66 0.66 1.32 1 2 C1.66 2 2.32 2 3 2 C3.66 3.65 4.32 5.3 5 7 C2.0625 6.1875 2.0625 6.1875 -1 5 C-1.33 4.01 -1.66 3.02 -2 2 C-1.34 2 -0.68 2 0 2 C0 1.34 0 0.68 0 0 Z " fill="#C28018" transform="translate(63,266)"/>
<path d="M0 0 C2.5 1.75 2.5 1.75 5 4 C5 5.32 5 6.64 5 8 C3.68 7.67 2.36 7.34 1 7 C0.67 4.69 0.34 2.38 0 0 Z " fill="#C27F18" transform="translate(154,263)"/>
<path d="M0 0 C1.32 0 2.64 0 4 0 C4.625 3.375 4.625 3.375 5 7 C4.34 7.66 3.68 8.32 3 9 C3 7.35 3 5.7 3 4 C2.34 4 1.68 4 1 4 C0.67 2.68 0.34 1.36 0 0 Z " fill="#C67F16" transform="translate(48,230)"/>
<path d="M0 0 C1.60080151 4.00200378 0.29279692 7.04556236 -1 11 C-1.66 11 -2.32 11 -3 11 C-2.32829194 7.1936543 -1.27253436 3.64793184 0 0 Z " fill="#E1B571" transform="translate(137,259)"/>
<path d="M0 0 C2 1.5625 2 1.5625 4 4 C4.25 7.75 4.25 7.75 4 11 C1.6870518 8.6870518 1.50419025 7.52095125 0.875 4.375 C0.70742187 3.55773437 0.53984375 2.74046875 0.3671875 1.8984375 C0.24601562 1.27195313 0.12484375 0.64546875 0 0 Z " fill="#DBAF6A" transform="translate(101,245)"/>
<path d="M0 0 C0.66 0 1.32 0 2 0 C3.35439668 2.70879335 3.06501451 5.00933268 3 8 C2.01 7.34 1.02 6.68 0 6 C-0.1875 2.875 -0.1875 2.875 0 0 Z " fill="#C37F15" transform="translate(102,241)"/>
<path d="M0 0 C0.12375 0.61875 0.2475 1.2375 0.375 1.875 C0.87197356 4.19120832 0.87197356 4.19120832 3 6 C0.07120629 5.37240135 -2.36095629 4.41377341 -5 3 C-5 2.34 -5 1.68 -5 1 C-2 0 -2 0 0 0 Z " fill="#CB923F" transform="translate(260,244)"/>
<path d="M0 0 C-0.99 0.66 -1.98 1.32 -3 2 C-3.33 2.99 -3.66 3.98 -4 5 C-5.5 3.625 -5.5 3.625 -7 2 C-7 1.34 -7 0.68 -7 0 C-3.86650268 -1.04449911 -3.01031744 -0.93423645 0 0 Z " fill="#CFA152" transform="translate(52,229)"/>
<path d="M0 0 C2.0625 0.4375 2.0625 0.4375 4 1 C4 1.66 4 2.32 4 3 C2.68 3 1.36 3 0 3 C0 4.65 0 6.3 0 8 C-0.33 8 -0.66 8 -1 8 C-1.04241723 5.66705225 -1.04092937 3.33297433 -1 1 C-0.67 0.67 -0.34 0.34 0 0 Z " fill="#D7BB84" transform="translate(101,237)"/>
<path d="M0 0 C0.66 0.33 1.32 0.66 2 1 C-2.75 5.875 -2.75 5.875 -5 7 C-3.75023244 3.34683329 -3.32901247 2.21934164 0 0 Z " fill="#F2E8A2" transform="translate(364,195)"/>
<path d="M0 0 C0.66 0.33 1.32 0.66 2 1 C1.34 2.65 0.68 4.3 0 6 C-0.99 6 -1.98 6 -3 6 C-2.625 3.5625 -2.625 3.5625 -2 1 C-1.34 0.67 -0.68 0.34 0 0 Z " fill="#C77E0D" transform="translate(114,270)"/>
<path d="M0 0 C0.99 0 1.98 0 3 0 C2.67 1.65 2.34 3.3 2 5 C0.68 5.33 -0.64 5.66 -2 6 C-1.34 4.02 -0.68 2.04 0 0 Z " fill="#CA8E3A" transform="translate(87,270)"/>
<path d="M0 0 C0.66 0.33 1.32 0.66 2 1 C2 4.3 2 7.6 2 11 C1.67 11 1.34 11 1 11 C0.63890458 9.35567294 0.28629924 7.7094792 -0.0625 6.0625 C-0.25972656 5.14597656 -0.45695312 4.22945312 -0.66015625 3.28515625 C-0.77230469 2.53105469 -0.88445312 1.77695313 -1 1 C-0.67 0.67 -0.34 0.34 0 0 Z " fill="#C67C0F" transform="translate(92,249)"/>
</svg>
