<?xml version="1.0" encoding="UTF-8"?>
<svg version="1.1" xmlns="http://www.w3.org/2000/svg" width="1000" height="1000">
<path d="M0 0 C1.05058594 0.00902344 2.10117187 0.01804687 3.18359375 0.02734375 C20.68508778 0.4148307 37.9401293 6.87226352 51.25 18.4375 C52.03503906 19.08074219 52.82007813 19.72398437 53.62890625 20.38671875 C68.07777539 32.67377236 78.90899248 50.37501019 81.25 69.4375 C82.4230342 92.28055502 79.02586513 113.26133118 64.25 131.4375 C63.57195312 132.27796875 62.89390625 133.1184375 62.1953125 133.984375 C48.9988408 149.48201081 29.08440597 159.84588296 8.73046875 161.66235352 C-3.34048217 162.20123525 -14.28160233 161.25193424 -25.75 157.4375 C-26.80445313 157.086875 -27.85890625 156.73625 -28.9453125 156.375 C-48.93723067 148.85845635 -64.45942757 132.6869695 -73.3215332 113.52612305 C-81.51073498 94.57786661 -82.53736678 72.62806057 -75.23828125 53.2265625 C-68.00734459 35.33786304 -54.6602469 17.67621357 -36.75 9.4375 C-34.7043457 9.56103516 -34.7043457 9.56103516 -32.75 10.4375 C-31.45385742 12.43115234 -31.45385742 12.43115234 -30.35546875 15.0234375 C-29.95779297 15.95414062 -29.56011719 16.88484375 -29.15039062 17.84375 C-28.75013672 18.8234375 -28.34988281 19.803125 -27.9375 20.8125 C-27.51791016 21.78445313 -27.09832031 22.75640625 -26.66601562 23.7578125 C-23.6156532 31.0344596 -23.6156532 31.0344596 -24.75 34.4375 C-26.71875 35.69140625 -26.71875 35.69140625 -29.25 37 C-40.37260147 43.46699828 -47.63264316 54.25495278 -51.125 66.5625 C-54.16479957 83.97801834 -50.88142748 99.87223428 -40.75 114.4375 C-33.1968049 123.78741357 -21.69939984 130.71165821 -9.75 132.4375 C-6.35339892 132.62921323 -2.96395803 132.66832335 0.4375 132.6875 C1.33275391 132.708125 2.22800781 132.72875 3.15039062 132.75 C16.59379796 132.82765145 28.27559534 127.42106202 38.0625 118.25 C47.84133304 107.74484059 53.23624793 94.63365958 53.6875 80.25 C53.06442082 64.77686714 46.40806542 50.86942755 35.125 40.3125 C21.44072622 29.4196967 6.93132483 26.48361239 -10.03125 28.11328125 C-10.9284375 28.22027344 -11.825625 28.32726562 -12.75 28.4375 C-15.49512473 23.26399571 -17.81611969 17.99109507 -20 12.5625 C-20.27021973 11.89597412 -20.54043945 11.22944824 -20.81884766 10.54272461 C-22.75 5.68503818 -22.75 5.68503818 -22.75 3.4375 C-15.06237922 0.96567191 -8.06501583 -0.08368369 0 0 Z " fill="#3F7FE8" transform="translate(500.75,358.5625)"/>
<path d="M0 0 C4.62 0 9.24 0 14 0 C14 35.31 14 70.62 14 107 C9.38 107 4.76 107 0 107 C-0.495 103.04 -0.495 103.04 -1 99 C-1.49628906 99.47050781 -1.99257813 99.94101562 -2.50390625 100.42578125 C-9.94145627 107.24235935 -17.13481178 110.46954203 -27.34765625 110.265625 C-38.17367316 109.1814289 -45.81757255 105.08023088 -53 97 C-59.86286579 88.55227749 -62.56901403 79.94359428 -62.4375 69.125 C-62.42992676 68.24803467 -62.42235352 67.37106934 -62.41455078 66.4675293 C-62.12531507 55.0722756 -58.16538992 45.63965069 -50.375 37.25 C-42.28702499 29.76113425 -33.04247986 27.66113991 -22.31640625 27.79296875 C-12.98721273 28.37535657 -8.71734611 31.99761969 -1 38 C-0.67 25.46 -0.34 12.92 0 0 Z M-42 48 C-48.09985977 55.91792383 -49.91548688 64.10974009 -49 74 C-47.74542607 82.08641217 -44.19424888 87.68290874 -38 93 C-32.13606622 96.91280474 -25.94819337 98.19355469 -19 97 C-11.20556865 94.57299143 -6.06621922 90.03502132 -2 83 C1.27008591 75.19363329 1.49006582 64.97509578 -0.9453125 56.84375 C-4.4039703 49.62189849 -9.47439668 44.07383798 -17 41 C-26.27010341 38.46237393 -35.37601857 41.06792641 -42 48 Z " fill="#575A60" transform="translate(795,555)"/>
<path d="M0 0 C5.76526241 4.27628126 10.31054921 9.71009324 11.75 16.875 C9.96046815 17.71290789 8.16830305 18.54519396 6.375 19.375 C5.37726562 19.8390625 4.37953125 20.303125 3.3515625 20.78125 C0.75 21.875 0.75 21.875 -1.25 21.875 C-2.36328125 20.265625 -2.36328125 20.265625 -3.5625 18.125 C-6.51164436 13.2584819 -9.20050447 10.63407242 -14.625 8.625 C-21.51102607 7.20030495 -27.03799485 7.59934182 -33.25 10.875 C-36.79520198 13.80364512 -39.17415345 16.3564445 -40.25 20.875 C-40.11535461 24.64507078 -39.62655458 27.18737859 -37.8125 30.5 C-31.51634751 36.33545841 -22.71138843 38.91478726 -14.75 41.75 C-3.17722331 46.04547925 6.23104238 50.92771257 12.75 61.875 C15.90092486 69.10941045 15.75510989 78.3726421 13.55859375 85.87109375 C10.35281512 93.81584948 5.32777412 98.99248311 -2.25 102.875 C-5.20557822 104.10048365 -8.15804046 105.05940437 -11.25 105.875 C-12.075 106.101875 -12.9 106.32875 -13.75 106.5625 C-25.0897271 107.97996589 -35.9429708 105.38303605 -45.25390625 98.56640625 C-51.34219856 93.40744232 -55.9128824 87.59764947 -58.25 79.875 C-58.25 78.555 -58.25 77.235 -58.25 75.875 C-56.64850114 75.20194982 -55.04368971 74.53677773 -53.4375 73.875 C-52.54417969 73.50375 -51.65085937 73.1325 -50.73046875 72.75 C-48.25 71.875 -48.25 71.875 -45.25 71.875 C-44.89808594 72.67164063 -44.54617188 73.46828125 -44.18359375 74.2890625 C-40.25121495 82.72878932 -36.7453999 88.30794828 -27.9375 91.8125 C-21.34130904 93.69712599 -15.08744588 92.94883904 -8.875 90.125 C-4.4441563 87.66342016 -1.86291459 84.71374377 -0.25 79.875 C0.36361877 74.68438875 0.25316483 69.97590171 -2.76953125 65.48828125 C-8.86323597 58.84791172 -17.96790357 56.41921996 -26.20263672 53.47607422 C-36.75649652 49.67150898 -45.83351914 45.5238434 -52.25 35.875 C-55.42569894 28.26373468 -55.76874669 18.76183492 -52.8125 11 C-48.65059444 3.15809373 -41.68670173 -1.49797184 -33.51171875 -4.43359375 C-21.76921451 -8.02327121 -10.33634662 -6.64920208 0 0 Z " fill="#575A60" transform="translate(573.25,558.125)"/>
<path d="M0 0 C4.62 0 9.24 0 14 0 C14.33 21.45 14.66 42.9 15 65 C26.13147785 53.19840517 26.13147785 53.19840517 37.16381836 41.3046875 C49.69765109 28.1399386 49.69765109 28.1399386 58.38343811 27.77392578 C61.68092467 27.91833457 64.76667817 28.32884038 68 29 C66.70280076 31.85779017 65.3363174 33.91008536 63.11083984 36.11621094 C62.5303891 36.69651062 61.94993835 37.2768103 61.35189819 37.87469482 C60.72788116 38.48838928 60.10386414 39.10208374 59.4609375 39.734375 C58.82008209 40.37240051 58.17922668 41.01042603 57.51895142 41.66778564 C55.47562179 43.69994069 53.42544018 45.72502218 51.375 47.75 C49.9865214 49.1284453 48.5984951 50.50734636 47.2109375 51.88671875 C43.81251303 55.26311894 40.40792746 58.63319288 37 62 C40.17291582 68.07984917 43.7724841 73.57051282 47.859375 79.07763672 C51.5625518 84.1331826 55.02290718 89.3500803 58.5 94.5625 C59.22703125 95.64080078 59.9540625 96.71910156 60.703125 97.83007812 C61.38890625 98.85681641 62.0746875 99.88355469 62.78125 100.94140625 C63.40064453 101.86638916 64.02003906 102.79137207 64.65820312 103.74438477 C66 106 66 106 66 108 C60.61624376 109.0498196 55.29095683 109.83192071 50 108 C44.45010322 103.70301451 41.11800418 96.95409125 37.625 91 C36.12397017 88.56742895 34.60747725 86.14512696 33.0874939 83.72436523 C32.15111783 82.21999638 31.22909306 80.70658268 30.32290649 79.18383789 C29.26642298 77.42415149 28.13992518 75.70681699 27 74 C22.81609473 74 20.03733885 77.40145403 17.22265625 80.1796875 C11.93279652 87.52355489 13.76747107 99.42378608 14 108 C9.38 108 4.76 108 0 108 C0 72.36 0 36.72 0 0 Z " fill="#575A60" transform="translate(290,554)"/>
<path d="M0 0 C5.9082213 5.37799631 9.33585175 11.81996952 11.265625 19.5390625 C11.265625 24.1590625 11.265625 28.7790625 11.265625 33.5390625 C-7.874375 33.5390625 -27.014375 33.5390625 -46.734375 33.5390625 C-43.37886001 46.59997243 -43.37886001 46.59997243 -34.44140625 54.84375 C-27.35593933 58.02946381 -20.88490343 58.79748131 -13.484375 56.2890625 C-7.95029622 53.93460354 -4.55378384 50.88110031 -1.734375 45.5390625 C3.02044146 46.11540389 6.23610712 48.08974771 10.265625 50.5390625 C7.12818598 58.38266006 0.97624724 64.4128985 -6.75 67.796875 C-17.33149904 71.75452228 -28.23914631 71.93282773 -38.734375 67.5390625 C-47.16349074 63.57333462 -53.6469813 56.85428066 -57.171875 48.2265625 C-57.72851497 46.67645748 -58.25287801 45.11412893 -58.734375 43.5390625 C-58.92644531 42.93964844 -59.11851562 42.34023438 -59.31640625 41.72265625 C-61.75325612 28.99182377 -59.38149069 16.72139057 -52.4609375 5.86328125 C-46.8907607 -1.63503367 -39.68474241 -6.00370467 -30.671875 -8.2109375 C-19.19466562 -9.18772128 -9.01203416 -7.59121797 0 0 Z M-42.0703125 12.9921875 C-44.25874708 16.06727746 -44.25874708 16.06727746 -45.734375 22.5390625 C-31.544375 22.5390625 -17.354375 22.5390625 -2.734375 22.5390625 C-3.69088543 15.84348951 -4.26542529 13.14516668 -8.734375 8.5390625 C-20.58542632 -0.23654821 -32.82733517 2.60764723 -42.0703125 12.9921875 Z " fill="#575B60" transform="translate(413.734375,591.4609375)"/>
<path d="M0 0 C8.29583004 6.24863327 14.93367481 15.37675278 16.421875 25.82421875 C17.1725885 40.07333837 16.11586479 51.60173546 6.671875 62.921875 C-1.30354713 71.52439685 -11.31688636 75.64068016 -22.953125 76.13671875 C-33.46327148 75.84375299 -43.46778077 71.77465962 -51.265625 64.76171875 C-59.75236101 55.72235807 -63.06066073 44.00094113 -62.83203125 31.9140625 C-61.92777598 20.90997143 -57.62450387 10.47546294 -49.578125 2.82421875 C-35.63445983 -8.77734641 -15.18575063 -9.7386879 0 0 Z M-41.88671875 13.8515625 C-48.62745886 21.7131647 -49.34762875 30.91910988 -48.79589844 40.859375 C-48.05969763 47.50168902 -44.44829159 52.31197109 -39.703125 56.76171875 C-33.56659498 61.60694915 -28.14651653 63.40431658 -20.359375 63.1796875 C-13.93063646 62.35803693 -8.21156736 59.32527704 -3.578125 54.82421875 C2.12156608 47.17034787 3.96408286 39.65202138 3.2109375 30.16796875 C1.84999615 21.84825181 -1.96753081 15.36489286 -8.55078125 10.078125 C-19.65251172 3.21173679 -32.58368552 4.99958543 -41.88671875 13.8515625 Z " fill="#575B60" transform="translate(917.578125,589.17578125)"/>
<path d="M0 0 C8.58156206 8.97163307 11.53939256 19.33085057 11.3125 31.5546875 C10.15726153 44.29119162 4.78102882 53.37841834 -4.8515625 61.4609375 C-14.12020183 68.10065368 -24.3562325 68.84770067 -35.4296875 67.76171875 C-44.68534369 66.13127398 -52.32103405 60.76119469 -58.2421875 53.60546875 C-64.56275454 44.23698382 -67.19564352 32.97095678 -65.51953125 21.796875 C-63.33990858 12.21135211 -59.6422331 3.46947895 -52 -3 C-34.58124242 -13.7287948 -15.81520039 -13.8729828 0 0 Z M-46 9 C-52.46223055 17.25729459 -52.93733825 25.79342791 -52 36 C-50.06023696 43.23479187 -45.91504654 49.43704481 -39.4375 53.3125 C-33.205143 56.37202071 -27.22557269 57.01130322 -20.4375 55.38671875 C-13.21676017 52.8880786 -8.33110766 48.74823405 -4.94140625 41.84375 C-1.28620333 32.46964107 -1.11095152 24.34248864 -5 15 C-8.99948108 7.93425009 -13.62155882 4.78711885 -21.0625 1.75 C-30.27340655 -0.60172082 -39.44164152 2.28549013 -46 9 Z " fill="#575B60" transform="translate(273,594)"/>
<path d="M0 0 C7.86106 8.42386106 11.40292892 19.02572938 11.2109375 30.44921875 C10.26450666 41.89402134 6.04066374 51.47375263 -2.3125 59.375 C-11.83273411 67.32190705 -21.88403679 68.76343292 -34 68 C-43.86737446 66.34843945 -52.18205092 61.06097857 -58.42578125 53.2890625 C-65.74804219 42.64180465 -66.30951716 31.52617145 -65 19 C-63.27969994 9.75739411 -58.01486399 1.68672649 -50.43359375 -3.88671875 C-33.84937347 -14.09429398 -14.66465861 -13.39351484 0 0 Z M-47 10 C-52.1160657 18.38968973 -52.71279569 26.34755836 -52 36 C-50.12857278 43.23143889 -45.8858101 49.45453669 -39.4375 53.3125 C-33.205143 56.37202071 -27.22557269 57.01130322 -20.4375 55.38671875 C-12.58869449 52.67074489 -8.0683307 48.06383285 -4.3359375 40.73046875 C-2.91234123 36.75522186 -2.49970726 33.29544274 -2.5625 29.125 C-2.56934814 28.42391113 -2.57619629 27.72282227 -2.58325195 27.00048828 C-2.76195256 21.21647823 -3.83899941 16.82414142 -7 12 C-7.37382812 11.42894531 -7.74765625 10.85789062 -8.1328125 10.26953125 C-11.59796451 5.62255587 -15.97812974 2.90656108 -21.5 1.25 C-31.40804807 0.25919519 -40.01656341 2.68401881 -47 10 Z " fill="#575B60" transform="translate(192,594)"/>
<path d="M0 0 C1.093125 0.00257813 2.18625 0.00515625 3.3125 0.0078125 C4.405625 0.00523437 5.49875 0.00265625 6.625 0 C9.3125 0.1328125 9.3125 0.1328125 10.3125 1.1328125 C10.41450524 2.7475537 10.44819442 4.36667094 10.4543457 5.98461914 C10.46138016 7.01982193 10.46841461 8.05502472 10.47566223 9.12159729 C10.47982651 10.25064987 10.48399078 11.37970245 10.48828125 12.54296875 C10.51149199 14.91862853 10.53560982 17.29427959 10.56054688 19.66992188 C10.59558857 23.42673461 10.62495668 27.18322971 10.63842773 30.94018555 C10.65395149 34.55817622 10.69420812 38.17522763 10.73828125 41.79296875 C10.73637283 42.90785172 10.73446442 44.02273468 10.73249817 45.17140198 C10.83259833 51.58902992 11.40954122 56.85511377 15.3125 62.1328125 C20.28756746 66.19409206 24.37096219 66.6999139 30.7265625 66.46484375 C34.07549764 66.03484453 36.47267412 64.93367769 39.3125 63.1328125 C40.055 62.8440625 40.7975 62.5553125 41.5625 62.2578125 C44.09512556 60.62969607 44.38373545 58.98102377 45.3125 56.1328125 C45.81700684 54.98095459 46.32151367 53.82909668 46.84130859 52.64233398 C48.77043575 47.49675181 48.7710601 42.54924429 48.7890625 37.10546875 C48.80464203 36.07594589 48.82022156 35.04642303 48.83627319 33.98570251 C48.88352543 30.72224594 48.91148875 27.45900148 48.9375 24.1953125 C48.97397263 20.90677675 49.01449697 17.61836186 49.06015015 14.3299408 C49.0874198 12.28896694 49.10875228 10.24790375 49.12368774 8.20680237 C49.13394989 7.29172409 49.14421204 6.37664581 49.15478516 5.43383789 C49.16128082 4.62523819 49.16777649 3.81663849 49.17446899 2.98353577 C49.3125 1.1328125 49.3125 1.1328125 50.3125 0.1328125 C52.31049572 0.03407434 54.31207158 0.00309451 56.3125 0.0078125 C57.405625 0.00523437 58.49875 0.00265625 59.625 0 C62.3125 0.1328125 62.3125 0.1328125 63.3125 1.1328125 C63.40744733 3.50582119 63.43809319 5.84959953 63.42602539 8.22290039 C63.42617142 8.96431778 63.42631744 9.70573517 63.4264679 10.46961975 C63.42576865 12.93159871 63.41797574 15.39350293 63.41015625 17.85546875 C63.40829211 19.55797789 63.40686819 21.26048757 63.40586853 22.96299744 C63.40204302 27.45274323 63.39221247 31.94245688 63.38116455 36.43218994 C63.37095113 41.01012741 63.36637106 45.58807006 63.36132812 50.16601562 C63.35059022 59.15496434 63.33299316 68.14388072 63.3125 77.1328125 C58.6925 77.1328125 54.0725 77.1328125 49.3125 77.1328125 C48.8175 73.1728125 48.8175 73.1728125 48.3125 69.1328125 C47.63767578 69.82117188 47.63767578 69.82117188 46.94921875 70.5234375 C40.63182802 76.54964589 33.60582279 80.19480058 24.75 80.5703125 C16.07805303 80.06019797 9.53705211 77.49603201 3.2265625 71.453125 C-2.05423938 65.05149987 -3.80991017 56.85746039 -3.81689453 48.71582031 C-3.82004669 47.65832581 -3.82319885 46.6008313 -3.82644653 45.5112915 C-3.8244223 44.38092468 -3.82239807 43.25055786 -3.8203125 42.0859375 C-3.82126923 40.91899353 -3.82222595 39.75204956 -3.82321167 38.54974365 C-3.8238912 36.08866319 -3.82205277 33.62758091 -3.81787109 31.16650391 C-3.8125004 27.38309759 -3.81783367 23.59980896 -3.82421875 19.81640625 C-3.82355831 17.42708307 -3.82227785 15.03775996 -3.8203125 12.6484375 C-3.82233673 11.50997375 -3.82436096 10.37151001 -3.82644653 9.19854736 C-3.82329437 8.1536615 -3.82014221 7.10877563 -3.81689453 6.03222656 C-3.81609894 5.10798889 -3.81530334 4.18375122 -3.81448364 3.23150635 C-3.62162717 0.04411406 -3.22336531 0.15929422 0 0 Z " fill="#55585E" transform="translate(656.6875,584.8671875)"/>
<path d="M0 0 C4.29 0 8.58 0 13 0 C13 31.35 13 62.7 13 95 C28.51 95 44.02 95 60 95 C60 99.29 60 103.58 60 108 C39.87 108 19.74 108 -1 108 C-1.04010881 81.33655486 -1.04010881 81.33655486 -1.04882812 70.01367188 C-1.05481728 62.27269815 -1.0619195 54.5317362 -1.07543945 46.79077148 C-1.08626592 40.553297 -1.09227632 34.31583513 -1.09487724 28.07835197 C-1.09673193 25.69279723 -1.10035336 23.30724321 -1.10573006 20.9216938 C-1.11293729 17.59304409 -1.11399108 14.26444721 -1.11352539 10.93579102 C-1.11712067 9.93885727 -1.12071594 8.94192352 -1.12442017 7.91477966 C-1.1230455 7.01309052 -1.12167084 6.11140137 -1.12025452 5.18238831 C-1.12117631 4.3942553 -1.1220981 3.6061223 -1.12304783 2.79410648 C-1 1 -1 1 0 0 Z " fill="#595D62" transform="translate(68,554)"/>
<path d="M0 0 C3.31142457 1.85894051 6.2299095 3.79097823 9.1640625 6.21484375 C9.1640625 6.87484375 9.1640625 7.53484375 9.1640625 8.21484375 C7.5546875 9.80078125 7.5546875 9.80078125 5.4140625 11.58984375 C3.0657211 13.56261562 1.00143281 15.40070625 -1.0234375 17.71484375 C-2.8359375 19.21484375 -2.8359375 19.21484375 -5.3984375 19.02734375 C-7.2109375 18.42317708 -9.0234375 17.81901042 -10.8359375 17.21484375 C-16.45193666 16.84658151 -20.01259739 16.99928368 -24.8359375 20.21484375 C-27.80818303 23.08265903 -30.46184956 25.97518043 -30.8359375 30.21484375 C-30.9596875 31.45234375 -31.0834375 32.68984375 -31.2109375 33.96484375 C-31.13632064 38.95484623 -29.08968227 42.51701833 -25.8359375 46.21484375 C-22.74110134 48.19027109 -20.37441393 49.11593992 -16.7734375 49.77734375 C-12.02130272 52.10285652 -10.71714876 56.45147485 -8.8359375 61.21484375 C-8.04227762 63.54647665 -7.40955345 65.81608613 -6.8359375 68.21484375 C-15.5826047 71.13039948 -24.59024447 68.7073804 -32.8359375 65.21484375 C-39.65188453 61.28804441 -44.08877204 56.06062681 -47.8359375 49.21484375 C-48.17625 48.62445313 -48.5165625 48.0340625 -48.8671875 47.42578125 C-52.35465124 40.09564913 -51.91276868 30.04135494 -50.1796875 22.2734375 C-47.98606367 16.2315167 -44.33479366 10.80234732 -39.8359375 6.21484375 C-39.1759375 6.21484375 -38.5159375 6.21484375 -37.8359375 6.21484375 C-37.8359375 5.55484375 -37.8359375 4.89484375 -37.8359375 4.21484375 C-35.89968652 3.23320953 -33.96189211 2.25461921 -32.0234375 1.27734375 C-30.94449219 0.73207031 -29.86554688 0.18679688 -28.75390625 -0.375 C-19.96275762 -4.62346674 -8.77633409 -4.12399645 0 0 Z " fill="#588DE6" transform="translate(470.8359375,293.78515625)"/>
<path d="M0 0 C4.29 0 8.58 0 13 0 C13 6.93 13 13.86 13 21 C18.87883003 20.96042231 18.87883003 20.96042231 24.75756836 20.90991211 C25.48596924 20.90741455 26.21437012 20.90491699 26.96484375 20.90234375 C27.7137085 20.89710693 28.46257324 20.89187012 29.23413086 20.88647461 C31 21 31 21 32 22 C32.14355117 26.00220653 32.04216403 29.99441683 32 34 C25.73 34 19.46 34 13 34 C13.09715179 40.13845904 13.20001903 46.27627705 13.31738281 52.41430664 C13.35556383 54.50051104 13.39043533 56.58677882 13.421875 58.6730957 C13.46776227 61.679429 13.52571733 64.68532999 13.5859375 67.69140625 C13.59748871 68.61772354 13.60903992 69.54404083 13.62094116 70.49842834 C13.73818955 75.69345914 14.32020186 80.07553914 16 85 C22.06820868 86.08360869 26.10106757 85.79074734 32 84 C32 88.62 32 93.24 32 98 C25.35281605 100.21572798 15.74670467 100.33462643 9.3125 97.3125 C4.86342672 94.58129015 2.00887118 90.77762701 0 86 C-0.24050903 83.54486084 -0.24050903 83.54486084 -0.22705078 80.77246094 C-0.22689972 79.73168396 -0.22674866 78.69090698 -0.22659302 77.61859131 C-0.21627045 76.50179993 -0.20594788 75.38500854 -0.1953125 74.234375 C-0.1924826 73.08584045 -0.18965271 71.93730591 -0.18673706 70.75396729 C-0.17554263 67.08587219 -0.15043904 63.4180213 -0.125 59.75 C-0.11496926 57.26302436 -0.10584358 54.77604489 -0.09765625 52.2890625 C-0.07560564 46.19261425 -0.04108052 40.09634853 0 34 C-4.62 34 -9.24 34 -14 34 C-14.09765625 24.72265625 -14.09765625 24.72265625 -14 22 C-13 21 -13 21 -10.05859375 20.90234375 C-6.70572917 20.93489583 -3.35286458 20.96744792 0 21 C0 14.07 0 7.14 0 0 Z " fill="#595C62" transform="translate(608,564)"/>
<path d="M0 0 C3.96 0 7.92 0 12 0 C12.33 3.96 12.66 7.92 13 12 C13.825 10.9275 14.65 9.855 15.5 8.75 C20.1417778 3.39243403 25.06447494 1.0594859 32.0625 0.125 C36.49989271 -0.18362855 39.84592772 0.46479937 44 2 C44 6.62 44 11.24 44 16 C43.01 15.835 42.02 15.67 41 15.5 C33.15979842 14.44307142 27.6730393 14.46708912 21 19 C15.01084392 24.827287 13.67626568 32.06150151 13.50764465 40.07226562 C13.49805977 41.55243164 13.49805977 41.55243164 13.48828125 43.0625 C13.47033005 44.09439453 13.45237885 45.12628906 13.43388367 46.18945312 C13.38004544 49.45959484 13.34596978 52.72959281 13.3125 56 C13.27930358 58.22788447 13.24481179 60.45575004 13.20898438 62.68359375 C13.12433407 68.12229168 13.0573967 73.56094894 13 79 C8.71 79 4.42 79 0 79 C0 52.93 0 26.86 0 0 Z " fill="#5C5F65" transform="translate(433,583)"/>
<path d="M0 0 C4.29 0 8.58 0 13 0 C13 25.41 13 50.82 13 77 C8.71 77 4.42 77 0 77 C0 51.59 0 26.18 0 0 Z " fill="#585C62" transform="translate(828,585)"/>
<path d="M0 0 C5.99462383 11.18996448 7.84295406 21.20286537 4.375 33.6875 C2.5522611 39.14269713 0.22994588 43.99967976 -4 48 C-4.66 48 -5.32 48 -6 48 C-6 48.66 -6 49.32 -6 50 C-9 52 -9 52 -12 52 C-13.06073365 49.42307643 -14.09862962 46.84057676 -15.125 44.25 C-15.42792969 43.52039063 -15.73085938 42.79078125 -16.04296875 42.0390625 C-18.17961946 36.57321184 -18.17961946 36.57321184 -17.28515625 33.71875 C-16.86105469 33.1515625 -16.43695313 32.584375 -16 32 C-12.72320049 25.12882569 -12.5549688 20.33509359 -15 13 C-12.88094537 10.82722286 -10.75527122 8.66173092 -8.625 6.5 C-8.02171875 5.87996094 -7.4184375 5.25992187 -6.796875 4.62109375 C-6.21679688 4.03457031 -5.63671875 3.44804687 -5.0390625 2.84375 C-4.50490723 2.29912109 -3.97075195 1.75449219 -3.42041016 1.19335938 C-2 0 -2 0 0 0 Z " fill="#568AE0" transform="translate(486,305)"/>
<path d="M0 0 C0.680625 0.06703125 1.36125 0.1340625 2.0625 0.203125 C4.51796252 0.8961991 5.46319102 1.72232964 7 3.75 C7.9356747 6.7419179 8.19743592 9.62393122 8 12.75 C6.23496686 15.67143417 5.04152365 17.22923817 2 18.75 C-4.94263424 19.43288206 -4.94263424 19.43288206 -9 16.8125 C-11.66333892 12.73426227 -11.97654303 9.49955018 -11 4.75 C-8.01737899 0.63603998 -4.9827007 -0.56621599 0 0 Z " fill="#55585D" transform="translate(836,553.25)"/>
<path d="M0 0 C0.66 0.33 1.32 0.66 2 1 C-1.96 4.96 -5.92 8.92 -10 13 C-10 9.28115772 -9.1259934 8.63852271 -6.6875 5.9375 C-5.76517578 4.89916016 -5.76517578 4.89916016 -4.82421875 3.83984375 C-3 2 -3 2 0 0 Z " fill="#424448" transform="translate(371,588)"/>
<path d="M0 0 C0.66 0.33 1.32 0.66 2 1 C-1.96 4.96 -5.92 8.92 -10 13 C-10 8.68381834 -7.86729652 7.07210341 -5 4 C-4.34 4 -3.68 4 -3 4 C-3 3.34 -3 2.68 -3 2 C-2.01 1.34 -1.02 0.68 0 0 Z " fill="#395A92" transform="translate(436,296)"/>
<path d="M0 0 C0.66 0.33 1.32 0.66 2 1 C-1.63 4.63 -5.26 8.26 -9 12 C-9 8.47601214 -8.44884893 7.98495633 -6.1875 5.4375 C-5.40439453 4.53837891 -5.40439453 4.53837891 -4.60546875 3.62109375 C-3 2 -3 2 0 0 Z " fill="#37393C" transform="translate(224,589)"/>
<path d="M0 0 C0.66 0.33 1.32 0.66 2 1 C-0.97 3.97 -3.94 6.94 -7 10 C-7.66 9.67 -8.32 9.34 -9 9 C-6.21000549 5.51250686 -3.74764169 2.49842779 0 0 Z " fill="#3B3D40" transform="translate(872,589)"/>
</svg>
